<?xml version="1.0" encoding="UTF-8"?>
<svg id="Layer_2" data-name="Layer 2" xmlns="http://www.w3.org/2000/svg" viewBox="0 0 544.6 45.13">
  <defs>
    <style>
      .cls-1 {
        fill: #fff;
      }

      .cls-2 {
        fill: #c09772;
      }
    </style>
  </defs>
  <g id="Layer_1-2" data-name="Layer 1">
    <g>
      <rect class="cls-1" x="82.99" y="25.8" width="2.71" height=".65"/>
      <rect class="cls-1" x="50.91" y="25.8" width="2.74" height=".65"/>
      <rect class="cls-1" x="4.25" y="25.8" width="4" height=".65"/>
      <polygon class="cls-1" points="109.28 26.45 109.28 25.8 101.92 25.8 100.21 26.45 109.28 26.45"/>
      <rect class="cls-1" x="35.03" y="25.8" width="2.89" height=".65"/>
      <g>
        <path class="cls-1" d="M35.03,29.06c0,2.83-.58,5.31-1.72,7.42-1.15,2.11-2.75,3.77-4.8,4.96-2.05,1.19-4.45,1.79-7.2,1.79-2.59,0-4.86-.63-6.83-1.88-1.97-1.25-3.5-3.01-4.59-5.26-1.09-2.26-1.63-4.86-1.63-7.82v-1.81h-4v2.67c0,3.2.71,6,2.12,8.4,1.42,2.4,3.41,4.27,5.97,5.6,2.56,1.33,5.55,2,8.96,2s6.24-.68,8.74-2.03c2.5-1.35,4.44-3.23,5.82-5.63,1.38-2.4,2.06-5.2,2.06-8.4v-2.61h-2.89v2.61Z"/>
        <path class="cls-1" d="M49.93,42.73c-.66.62-1.46.92-2.4.92h-1.05v.62h4.43v-3.82c0,.9-.33,1.66-.99,2.28Z"/>
        <polygon class="cls-1" points="50.91 40.45 51.1 40.45 51.1 44.27 53.5 44.27 53.5 40.45 53.68 40.45 53.65 26.45 50.91 26.45 50.91 40.45"/>
        <path class="cls-1" d="M58.12,44.27v-.62h-1.05c-.9,0-1.69-.31-2.37-.92-.68-.62-1.02-1.37-1.02-2.28h0v3.82h4.44Z"/>
        <rect class="cls-1" x="50.91" y="40.45" width=".18" height="3.82"/>
        <rect class="cls-1" x="53.5" y="40.45" width=".18" height="3.82"/>
        <polygon class="cls-1" points="82.99 36.57 72.25 26.45 65.98 26.45 85.7 45.13 82.99 41.86 82.99 36.57"/>
        <path class="cls-1" d="M82.99,26.45v10.12l2.09,1.97.62,6.59h.55c-.21-1.52-.35-2.88-.43-4.09-.08-1.21-.12-2.47-.12-3.79v-10.8h-2.71Z"/>
        <polygon class="cls-1" points="82.99 36.57 82.99 41.86 85.7 45.13 85.08 38.54 82.99 36.57"/>
      </g>
      <polygon class="cls-1" points="71.56 25.8 65.3 25.8 65.98 26.45 72.25 26.45 71.56 25.8"/>
      <g>
        <rect class="cls-1" x="8.13" y="1.17" width=".12" height="3.69"/>
        <path class="cls-1" d="M9.2,2.65c.64-.57,1.41-.86,2.31-.86h.99v-.62h-4.25v3.69c0-.9.32-1.64.95-2.22Z"/>
        <rect class="cls-1" x="4.25" y="1.17" width=".18" height="3.69"/>
        <path class="cls-1" d="M0,1.17v.62h.99c.9,0,1.67.29,2.31.86.64.58.95,1.31.95,2.22V1.17H0Z"/>
        <polygon class="cls-1" points="8.25 4.86 8.13 4.86 8.13 1.17 4.43 1.17 4.43 4.86 4.25 4.86 4.25 26.55 8.25 26.55 8.25 4.86"/>
        <rect class="cls-1" x="35.03" y="1.17" width=".18" height="3.69"/>
        <rect class="cls-1" x="37.8" y="1.17" width=".12" height="3.69"/>
        <polygon class="cls-1" points="37.92 4.86 37.8 4.86 37.8 1.17 35.21 1.17 35.21 4.86 35.03 4.86 35.03 25.8 37.92 25.8 37.92 4.86"/>
        <path class="cls-1" d="M38.88,2.65c.64-.57,1.41-.86,2.31-.86h.99v-.62h-4.25v3.69c0-.9.32-1.64.95-2.22Z"/>
        <path class="cls-1" d="M30.78,1.17v.62h.99c.9,0,1.67.29,2.31.86.64.58.95,1.31.95,2.22V1.17h-4.25Z"/>
        <path class="cls-1" d="M53.63,14.74l-2.04-1.93-.62-6.4h-.62c.37,3.04.55,5.6.55,7.7v12.75h2.74l-.02-12.11Z"/>
        <polygon class="cls-1" points="53.63 14.74 65.3 25.8 71.56 25.8 50.98 6.4 53.62 9.85 53.63 14.74"/>
        <path class="cls-1" d="M78.49,7.33v.62h1.05c.94,0,1.74.31,2.4.92.66.62,1,1.38,1.05,2.28v-3.82h-4.49Z"/>
        <polygon class="cls-1" points="53.63 14.74 53.62 9.85 50.98 6.4 51.59 12.81 53.63 14.74"/>
        <rect class="cls-1" x="85.51" y="7.33" width=".18" height="3.82"/>
        <path class="cls-1" d="M86.71,8.87c.68-.62,1.47-.92,2.37-.92h1.05v-.62h-4.43v3.82c0-.9.34-1.66,1.02-2.28Z"/>
        <rect class="cls-1" x="82.99" y="7.33" width=".12" height="3.82"/>
        <polygon class="cls-1" points="85.7 11.14 85.51 11.14 85.51 7.33 83.11 7.33 83.11 11.14 82.99 11.14 82.99 27.22 85.7 27.22 85.7 11.14"/>
        <path class="cls-1" d="M100.16,11.21h-.12c-.04-.94-.39-1.72-1.05-2.34-.66-.62-1.48-.92-2.46-.92h-.86v-.62h5.23l-.74,3.88ZM100.16,40.33l.74,3.94h-5.23v-.62h.86c.99,0,1.81-.33,2.46-.98.66-.66,1-1.44,1.05-2.34h.12ZM103.92,7.33v36.94h-3.94V7.33h3.94ZM103.74,40.33h.18c.04.9.39,1.68,1.05,2.34.66.66,1.48.98,2.46.98h.8l.06.62h-5.29l.74-3.94ZM111.12,7.33c1.93,0,3.66.23,5.2.68,1.54.45,2.85,1.11,3.94,1.97,1.09.86,1.92,1.91,2.49,3.14.57,1.23.86,2.63.86,4.19,0,1.72-.41,3.32-1.23,4.8-.82,1.48-1.96,2.69-3.42,3.63-1.46.94-3.11,1.52-4.96,1.72.7.29,1.51.92,2.43,1.91.92.98,1.71,1.95,2.37,2.89,1.07,1.44,2.02,2.68,2.86,3.72.84,1.05,1.67,2.04,2.49,2.99.86.94,1.65,1.77,2.37,2.46.72.7,1.5,1.24,2.34,1.63.84.39,1.82.58,2.92.58v.62h-1.91c-2.26,0-4.12-.29-5.57-.86-1.46-.57-2.64-1.28-3.54-2.12-.9-.84-1.68-1.65-2.34-2.43-.17-.21-.54-.73-1.14-1.57-.6-.84-1.24-1.75-1.94-2.74-.7-.99-1.33-1.88-1.91-2.68s-.92-1.28-1.05-1.45c-.82-1.07-1.77-2.02-2.83-2.86-1.07-.84-2.2-1.11-3.39-1.11v-.65c1.32.04,2.48-.08,3.51-.12,1.15-.04,2.28-.13,3.45-.28,1.15-.14,2.23-.58,3.23-1.32,1-.74,1.79-1.97,2.37-3.69.16-.45.29-.98.37-1.6s.1-1.25.06-1.91c-.04-1.15-.26-2.18-.65-3.08-.39-.9-.94-1.68-1.66-2.34-.72-.66-1.57-1.17-2.55-1.54s-2.09-.57-3.32-.62c-1.93-.08-3.61-.1-5.05-.06-1.44.04-2.15.04-2.15,0s-.05-.22-.15-.52c-.1-.31-.26-.77-.46-1.39h7.94Z"/>
        <path class="cls-1" d="M139.69,39.77c-.45,1.23-.39,2.19.18,2.86.57.68,1.23,1.02,1.97,1.02h.49v.62h-11.76v-.62h.49c.86,0,1.74-.3,2.65-.89.9-.59,1.68-1.59,2.34-2.99h3.63ZM151.57,6.46l.43,4.25-14.1,33.37h-3.88l14.59-31.27c.45-.98.83-1.84,1.14-2.56.31-.72.58-1.43.83-2.12.25-.7.39-1.25.43-1.66h.55ZM158.83,29.92v1.85h-16.31v-1.85h16.31ZM151.57,6.46l16.93,37.43h-4.86l-13.11-31.95,1.05-5.48ZM161.97,39.77h4.68c.62,1.4,1.38,2.39,2.28,2.99.9.6,1.76.89,2.59.89h.49v.62h-12.62v-.62h.49c.7,0,1.33-.34,1.91-1.02.57-.68.64-1.63.18-2.86Z"/>
        <path class="cls-1" d="M176.2,11.82h-4.68c-.62-1.4-1.38-2.39-2.28-2.99-.9-.59-1.77-.89-2.59-.89h-.49v-.62h12.62v.62h-.49c-.7,0-1.32.34-1.88,1.02-.55.68-.63,1.63-.21,2.86ZM186.6,45.13l-16.93-37.43h4.86l13.11,31.95-1.05,5.48ZM186.6,45.13l-.43-4.25,14.1-33.37h3.88l-14.59,31.27c-.45.98-.83,1.84-1.14,2.55-.31.72-.58,1.43-.83,2.12-.25.7-.39,1.25-.43,1.66h-.55ZM198.48,11.82c.45-1.23.39-2.19-.18-2.86-.58-.68-1.23-1.02-1.97-1.02h-.43v-.62h11.7v.62h-.49c-.86,0-1.75.3-2.65.89-.9.6-1.68,1.59-2.34,2.99h-3.63Z"/>
        <path class="cls-1" d="M215.23,11.21h-.12c-.04-.94-.39-1.72-1.05-2.34-.66-.62-1.5-.92-2.52-.92h-.86v-.62h5.36l-.8,3.88ZM215.23,40.33l.8,3.94h-5.36v-.62h.86c1.03,0,1.87-.33,2.52-.98.66-.66,1-1.44,1.05-2.34h.12ZM219.04,7.33v36.94h-3.94V7.33h3.94ZM235.54,7.33v1.91h-16.62v-1.91h16.62ZM232.71,24.87v1.85h-13.79v-1.85h13.79ZM235.61,42.36l-.12,1.91h-16.56v-1.91h16.68ZM239.05,35.46l-3.39,8.8h-9.36l2.09-1.91c2.05,0,3.7-.3,4.96-.89,1.25-.59,2.27-1.42,3.05-2.46.78-1.05,1.46-2.23,2.03-3.54h.62ZM235.54,6.34v1.6l-7.02-.62c1.27,0,2.63-.11,4.06-.34,1.44-.23,2.42-.44,2.96-.65ZM232.71,21.49v3.51h-3.2v-.12c.86,0,1.5-.26,1.91-.77.41-.51.62-1.12.62-1.82v-.8h.68ZM232.71,26.6v3.51h-.68v-.8c0-.7-.21-1.3-.62-1.82-.41-.51-1.05-.77-1.91-.77v-.12h3.2ZM235.54,9.05v4.25h-.68v-.92c0-.86-.28-1.6-.83-2.22-.55-.62-1.3-.92-2.25-.92v-.18h3.75Z"/>
      </g>
      <path class="cls-1" d="M248.23,11.27h-.12c-.04-.94-.41-1.73-1.11-2.37-.7-.64-1.56-.95-2.59-.95h-.74v-.62h4.56v3.94ZM248.23,40.33l.8,3.94h-5.36v-.62h.86c1.03,0,1.87-.33,2.52-.98.66-.66,1-1.44,1.05-2.34h.12ZM252.04,7.33v36.94h-3.94V7.33h3.94ZM251.86,11.27v-3.94h4.56v.62h-.74c-.99,0-1.84.32-2.56.95-.72.64-1.08,1.43-1.08,2.37h-.18ZM268.6,42.36l-.12,1.91h-16.56v-1.91h16.68ZM272.05,35.46l-3.39,8.8h-9.36l2.09-1.91c2.05,0,3.7-.3,4.96-.89,1.25-.59,2.27-1.42,3.05-2.46.78-1.05,1.46-2.23,2.03-3.54h.62Z"/>
      <path class="cls-1" d="M279.75,11.21h-.12c-.04-.94-.39-1.72-1.05-2.34-.66-.62-1.5-.92-2.52-.92h-.86v-.62h5.36l-.8,3.88ZM279.75,40.33l.8,3.94h-5.36v-.62h.86c1.03,0,1.87-.33,2.52-.98.66-.66,1-1.44,1.05-2.34h.12ZM283.57,7.33v36.94h-3.94V7.33h3.94ZM300.06,7.33v1.91h-16.62v-1.91h16.62ZM297.23,24.87v1.85h-13.79v-1.85h13.79ZM300.13,42.36l-.12,1.91h-16.56v-1.91h16.68ZM303.57,35.46l-3.39,8.8h-9.36l2.09-1.91c2.05,0,3.7-.3,4.96-.89,1.25-.59,2.27-1.42,3.05-2.46.78-1.05,1.46-2.23,2.03-3.54h.62ZM300.06,6.34v1.6l-7.02-.62c1.27,0,2.63-.11,4.06-.34,1.44-.23,2.42-.44,2.96-.65ZM297.23,21.49v3.51h-3.2v-.12c.86,0,1.5-.26,1.91-.77.41-.51.62-1.12.62-1.82v-.8h.68ZM297.23,26.6v3.51h-.68v-.8c0-.7-.21-1.3-.62-1.82-.41-.51-1.05-.77-1.91-.77v-.12h3.2ZM300.06,9.05v4.25h-.68v-.92c0-.86-.28-1.6-.83-2.22-.55-.62-1.3-.92-2.25-.92v-.18h3.75Z"/>
      <path class="cls-1" d="M312.62,11.33h-.12c-.04-.98-.4-1.79-1.08-2.43-.68-.64-1.51-.95-2.49-.95h-.74v-.62h4.43v4ZM312.62,40.26v4h-4.43v-.62h.8c.99,0,1.81-.34,2.46-1.02.66-.68,1-1.47,1.05-2.37h.12ZM316.5,7.33v36.94h-4V7.33h4ZM328.75,7.33c4.06,0,7.57.74,10.53,2.22,2.96,1.48,5.23,3.6,6.83,6.37s2.4,6.06,2.4,9.88-.8,7.1-2.4,9.85c-1.6,2.75-3.88,4.87-6.83,6.37-2.96,1.5-6.46,2.25-10.53,2.25h-13.11l-.12-1.85h13.24c4.76,0,8.51-1.49,11.24-4.46,2.73-2.98,4.09-7.03,4.09-12.16s-1.37-9.18-4.09-12.16c-2.73-2.98-6.48-4.46-11.24-4.46h-13.85v-1.85h13.85Z"/>
    </g>
    <g>
      <path class="cls-2" d="M349.13,0c.41.16,1.04.33,1.88.49.84.16,1.77.31,2.8.43,1.03.12,1.97.18,2.83.18l-7.51.68V0ZM384.78,1.11v1.85h-35.65v-1.85h35.65ZM353.38,2.77v.18c-1.03.04-1.89.41-2.59,1.11s-1.05,1.56-1.05,2.59v1.05l-.62.06V2.77h4.25ZM365.14,39.77v4.49h-4.93v-.62h.8c1.07,0,1.98-.38,2.74-1.14.76-.76,1.16-1.67,1.2-2.74h.18ZM368.95,1.35v42.91h-4V1.35h4ZM368.77,39.77h.18c.04,1.07.44,1.98,1.2,2.74.76.76,1.67,1.14,2.74,1.14h.8v.62h-4.93v-4.49ZM384.78,0v1.79l-7.51-.68c.9,0,1.86-.06,2.86-.18,1-.12,1.94-.27,2.8-.43.86-.16,1.48-.33,1.85-.49ZM384.78,2.77v4.99l-.62-.06v-1.05c0-1.03-.36-1.89-1.08-2.59-.72-.7-1.57-1.07-2.56-1.11v-.18h4.25Z"/>
      <path class="cls-2" d="M393.83,11.21h-.12c-.04-.94-.39-1.72-1.05-2.34-.66-.62-1.48-.92-2.46-.92h-.86v-.62h5.23l-.74,3.88ZM393.83,40.33l.74,3.94h-5.23v-.62h.86c.99,0,1.81-.33,2.46-.98.66-.66,1-1.44,1.05-2.34h.12ZM397.58,7.33v36.94h-3.94V7.33h3.94ZM397.4,40.33h.18c.04.9.39,1.68,1.05,2.34.66.66,1.48.98,2.46.98h.8l.06.62h-5.29l.74-3.94ZM404.79,7.33c1.93,0,3.66.23,5.2.68,1.54.45,2.85,1.11,3.94,1.97,1.09.86,1.92,1.91,2.49,3.14.57,1.23.86,2.63.86,4.19,0,1.72-.41,3.32-1.23,4.8-.82,1.48-1.96,2.69-3.42,3.63-1.46.94-3.11,1.52-4.96,1.72.7.29,1.51.92,2.43,1.91.92.98,1.71,1.95,2.37,2.89,1.07,1.44,2.02,2.68,2.86,3.72.84,1.05,1.67,2.04,2.49,2.99.86.94,1.65,1.77,2.37,2.46.72.7,1.5,1.24,2.34,1.63.84.39,1.82.58,2.92.58v.62h-1.91c-2.26,0-4.12-.29-5.57-.86-1.46-.57-2.64-1.28-3.54-2.12-.9-.84-1.68-1.65-2.34-2.43-.17-.21-.54-.73-1.14-1.57-.6-.84-1.24-1.75-1.94-2.74-.7-.99-1.33-1.88-1.91-2.68s-.92-1.28-1.05-1.45c-.82-1.07-1.77-2.02-2.83-2.86-1.07-.84-2.2-1.26-3.39-1.26v-.62c1.31.04,2.48.04,3.51,0,1.15-.04,2.3-.13,3.45-.28,1.15-.14,2.23-.58,3.23-1.32,1-.74,1.79-1.97,2.37-3.69.16-.45.29-.98.37-1.6s.1-1.25.06-1.91c-.04-1.15-.26-2.18-.65-3.08-.39-.9-.94-1.68-1.66-2.34-.72-.66-1.57-1.17-2.55-1.54s-2.09-.57-3.32-.62c-1.93-.08-3.61-.1-5.05-.06-1.44.04-2.15.04-2.15,0s-.05-.22-.15-.52c-.1-.31-.26-.77-.46-1.39h7.94Z"/>
      <path class="cls-2" d="M429.78,7.33v3.26h-.12c-.04-.74-.34-1.36-.89-1.88-.55-.51-1.24-.77-2.06-.77h-.92v-.62h4ZM433.6,7.33v23.27c0,3.98,1.02,7.12,3.05,9.42,2.03,2.3,4.81,3.45,8.34,3.45,3.9,0,6.97-1.09,9.2-3.26,2.24-2.17,3.35-5.15,3.35-8.93V7.33h2.83v23.95c0,4.27-1.36,7.64-4.09,10.13-2.73,2.48-6.47,3.72-11.24,3.72s-8.46-1.23-11.24-3.69-4.16-5.83-4.16-10.1V7.33h3.94ZM437.48,7.33v.62h-.92c-.78,0-1.47.26-2.06.77-.6.51-.89,1.14-.89,1.88h-.12v-3.26h4ZM457.67,7.33v3.26h-.12c0-.74-.29-1.36-.86-1.88-.58-.51-1.27-.77-2.09-.77h-.92v-.62h4ZM464.26,7.33v.62h-.92c-.78,0-1.46.26-2.03.77-.58.51-.88,1.14-.92,1.88h-.12v-3.26h4Z"/>
      <path class="cls-2" d="M467.34,6.28c.37.12.93.27,1.69.43.76.16,1.61.3,2.56.4.94.1,1.83.15,2.65.15l-6.89.62v-1.6ZM501.13,7.26v1.85h-33.8v-1.85h33.8ZM471.09,8.99v.12c-.94.04-1.69.36-2.25.95-.55.6-.83,1.32-.83,2.19v.99h-.68v-4.25h3.75ZM482.36,40.33v3.94h-4.49v-.62h.74c.99,0,1.83-.33,2.52-.98.7-.66,1.07-1.44,1.11-2.34h.12ZM486.24,7.51v36.75h-4V7.51h4ZM486.05,40.33h.19c.04.9.41,1.68,1.11,2.34.7.66,1.54.98,2.52.98h.68v.62h-4.5v-3.94ZM501.13,6.28v1.6l-6.9-.62c.82,0,1.69-.05,2.62-.15.92-.1,1.78-.24,2.56-.4.78-.16,1.35-.31,1.72-.43ZM501.13,8.99v4.25h-.68v-.99c0-.86-.28-1.59-.83-2.19-.55-.59-1.3-.91-2.25-.95v-.12h3.76Z"/>
      <path class="cls-2" d="M509.88,11.27h-.18c-.04-.94-.4-1.73-1.08-2.37-.68-.64-1.51-.95-2.49-.95h-.74v-.62h4.49v3.94ZM509.88,40.33v3.94h-4.49v-.62h.74c.98,0,1.82-.33,2.49-.98.68-.66,1.04-1.44,1.08-2.34h.18ZM513.63,7.33v36.94h-3.94V7.33h3.94ZM536.96,25.12v1.85h-24.01v-1.85h24.01ZM513.45,11.27v-3.94h4.49v.62h-.74c-.98,0-1.83.32-2.52.95-.7.64-1.05,1.43-1.05,2.37h-.18ZM513.45,40.33h.18c0,.9.35,1.68,1.05,2.34.7.66,1.54.98,2.52.98h.74v.62h-4.49v-3.94ZM536.53,11.27h-.18c-.04-.94-.4-1.73-1.08-2.37-.68-.64-1.51-.95-2.49-.95h-.74v-.62h4.49v3.94ZM536.53,40.33v3.94h-4.49v-.62h.74c.99,0,1.82-.33,2.49-.98.68-.66,1.04-1.44,1.08-2.34h.18ZM540.29,7.33v36.94h-3.94V7.33h3.94ZM540.1,11.27v-3.94h4.49v.62h-.74c-.99,0-1.82.32-2.49.95-.68.64-1.04,1.43-1.08,2.37h-.18ZM540.1,40.33h.18c.04.9.4,1.68,1.08,2.34.68.66,1.51.98,2.49.98h.74v.62h-4.49v-3.94Z"/>
    </g>
  </g>
</svg>