<?xml version="1.0" encoding="UTF-8"?>
<svg id="Layer_2" data-name="Layer 2" xmlns="http://www.w3.org/2000/svg" viewBox="0 0 693.99 137.35">
  <defs>
    <style>
      .cls-1 {
        fill: none;
      }

      .cls-2 {
        fill: #232323;
      }

      .cls-3 {
        fill: #c09772;
      }
    </style>
  </defs>
  <g id="Layer_1-2" data-name="Layer 1">
    <circle class="cls-3" cx="3.08" cy="68.61" r="2.61"/>
    <path class="cls-1" d="M3.66,70.97s0,0,.01,0c.01,0,.02,0,.04-.01,1.01-.29,1.76-1.22,1.76-2.33s-.74-2.03-1.75-2.33c-.01,0-.02,0-.03-.01,0,0,0,0-.01,0-.18-.05-.36-.08-.54-.08-.01,0-.02,0-.04,0,0,0-.01,0-.02,0-.01,0-.02,0-.03,0-1.34,0-2.43,1.09-2.43,2.44s1.09,2.44,2.43,2.44c.01,0,.02,0,.03,0,0,0,0,0,.01,0,.01,0,.02,0,.04,0,.19,0,.37-.04.55-.08Z"/>
    <rect class="cls-1" x="232.38" y="68.35" width="2.71" height=".65"/>
    <rect class="cls-1" x="200.31" y="68.35" width="2.74" height=".65"/>
    <path class="cls-2" d="M3.77,65.7c1.49-13.52,12.98-24.07,26.88-24.07s25.34,10.51,26.87,23.99c.05,0,.1-.02.16-.02.15,0,.3.02.45.05-1.52-13.82-13.26-24.62-27.48-24.62-11.8,0-21.89,7.43-25.85,17.86-.55,2.2-.91,4.48-1.08,6.8.02,0,.03.01.05.01Z"/>
    <path class="cls-2" d="M30.66,96.33c14.25,0,26.02-10.84,27.49-24.71-.15.02-.3.05-.46.05-.05,0-.1-.01-.15-.01-1.49,13.52-12.97,24.08-26.88,24.08s-25.45-10.6-26.9-24.16c-.01,0-.03,0-.04.01.17,2.36.53,4.66,1.08,6.89,3.96,10.42,14.05,17.86,25.85,17.86Z"/>
    <path class="cls-2" d="M58.01,123.68c29.34,0,53.38-23.09,54.92-52.05-.13.02-.26.04-.39.04-.07,0-.14-.02-.21-.02-1.55,28.62-25.32,51.43-54.32,51.43-25.23,0-46.5-17.27-52.62-40.6-.32-.91-.61-1.83-.87-2.77.38,2.32.88,4.6,1.49,6.83,7.43,21.58,27.93,37.14,52.01,37.14Z"/>
    <path class="cls-2" d="M5.38,54.88C11.51,31.54,32.78,14.28,58.01,14.28c28.97,0,52.72,22.76,54.31,51.34.07,0,.14-.02.22-.02.13,0,.26.02.38.04-1.58-28.92-25.61-51.96-54.91-51.96-24.08,0-44.57,15.56-52.01,37.14-.61,2.24-1.11,4.51-1.49,6.83.26-.94.55-1.86.87-2.77Z"/>
    <path class="cls-2" d="M4.8,58.88c4.4-17.74,20.45-30.93,39.53-30.93,21.43,0,39.03,16.63,40.6,37.66.06,0,.12-.02.18-.02.15,0,.28.02.42.04-1.56-21.37-19.44-38.29-41.2-38.29-17.95,0-33.26,11.51-38.95,27.53-.49,1.88-.89,3.8-1.18,5.75.18-.59.38-1.17.6-1.74Z"/>
    <path class="cls-2" d="M44.33,110c21.8,0,39.69-16.96,41.21-38.38-.14.02-.28.04-.43.04-.06,0-.11-.01-.17-.02-1.53,21.07-19.15,37.75-40.61,37.75-19.08,0-35.13-13.19-39.53-30.93-.22-.57-.42-1.15-.6-1.74.29,1.95.69,3.87,1.18,5.75,5.69,16.02,21,27.53,38.95,27.53Z"/>
    <path class="cls-2" d="M3.69,71.59c.09,1.74.27,3.45.52,5.14.18.59.38,1.17.6,1.74-.55-2.23-.92-4.53-1.08-6.89-.01,0-.02,0-.03.01Z"/>
    <path class="cls-2" d="M3.73,65.68c.17-2.33.53-4.6,1.08-6.8-.22.57-.42,1.15-.6,1.74-.25,1.66-.42,3.34-.51,5.05.01,0,.02,0,.03.01Z"/>
    <path class="cls-2" d="M4.01,76.05c.13,1.23.3,2.45.5,3.66.26.94.55,1.86.87,2.77-.49-1.88-.89-3.8-1.18-5.75-.07-.23-.13-.45-.19-.68Z"/>
    <path class="cls-2" d="M4.21,60.63c.29-1.95.69-3.87,1.18-5.75-.32.91-.61,1.83-.87,2.77-.2,1.21-.37,2.43-.5,3.66.06-.23.13-.46.19-.68Z"/>
    <path class="cls-2" d="M3.69,65.67c.09-1.7.27-3.39.51-5.05-.07.23-.13.45-.19.68-.16,1.44-.27,2.9-.33,4.36,0,0,0,0,.01,0Z"/>
    <path class="cls-2" d="M3.68,71.59c.06,1.5.17,2.98.33,4.45.06.23.13.46.19.68-.25-1.69-.43-3.4-.52-5.14,0,0,0,0,0,0Z"/>
    <path class="cls-2" d="M6,50.81C13.87,21.92,40.33.6,71.68.6c36.51,0,66.4,28.9,68,65.03.09,0,.18-.03.28-.03.11,0,.21.02.32.03C138.68,29.17,108.53,0,71.68,0S4.7,29.16,3.08,65.6c0,0,0,0,.01,0,.29-5.15,1.29-10.11,2.9-14.79Z"/>
    <path class="cls-2" d="M139.69,71.64c-1.56,36.17-31.46,65.12-68,65.12-31.36,0-57.81-21.32-65.68-50.21-1.62-4.71-2.63-9.7-2.91-14.88,0,0,0,0,0,0,1.57,36.49,31.73,65.69,68.6,65.69s67.05-29.22,68.6-65.72c-.11.01-.21.03-.32.03-.09,0-.18-.02-.28-.03Z"/>
    <path class="cls-2" d="M4.51,57.65c.38-2.32.88-4.6,1.49-6.83-1.61,4.68-2.62,9.64-2.9,14.79.01,0,.02,0,.04,0,.2-2.74.67-5.4,1.38-7.96Z"/>
    <path class="cls-2" d="M3.12,71.66s-.02,0-.04,0c.28,5.18,1.29,10.17,2.91,14.88-.61-2.24-1.11-4.51-1.49-6.83-.72-2.59-1.19-5.28-1.39-8.05Z"/>
    <path class="cls-2" d="M3.17,71.65s-.03,0-.04,0c.2,2.77.67,5.46,1.39,8.05-.2-1.21-.37-2.43-.5-3.66-.39-1.42-.68-2.89-.84-4.39Z"/>
    <path class="cls-2" d="M4.01,61.31c.13-1.23.3-2.45.5-3.66-.71,2.56-1.18,5.22-1.38,7.96.02,0,.03,0,.05,0,.16-1.47.45-2.91.83-4.3Z"/>
    <path class="cls-2" d="M3.17,71.65c.16,1.5.45,2.97.84,4.39-.16-1.47-.27-2.96-.33-4.45-.17.04-.34.05-.51.06Z"/>
    <path class="cls-2" d="M4.01,61.31c-.39,1.39-.67,2.83-.83,4.3.17,0,.34.02.5.06.06-1.47.17-2.92.33-4.36Z"/>
    <path class="cls-2" d="M136.95,68.35h.3c.13-1.29,1.15-2.3,2.44-2.43,0-.1,0-.2,0-.3-1.45.13-2.59,1.28-2.73,2.73Z"/>
    <path class="cls-2" d="M137.26,69h-.3c.17,1.4,1.3,2.51,2.72,2.64,0-.1,0-.2,0-.3-1.26-.12-2.26-1.09-2.43-2.34Z"/>
    <path class="cls-2" d="M142.67,68.35h.3c-.13-1.43-1.26-2.57-2.69-2.72,0,.1,0,.2,0,.3,1.26.15,2.25,1.16,2.38,2.42Z"/>
    <path class="cls-2" d="M140.29,71.33c0,.1,0,.2,0,.3,1.4-.15,2.5-1.24,2.68-2.63h-.3c-.17,1.22-1.14,2.18-2.37,2.33Z"/>
    <path class="cls-2" d="M139.68,65.63c0,.1,0,.2,0,.3.09,0,.18-.03.27-.03.11,0,.22.02.33.03,0-.1,0-.2,0-.3-.11-.01-.21-.03-.32-.03-.1,0-.18.02-.28.03Z"/>
    <path class="cls-2" d="M139.96,71.37c-.09,0-.18-.02-.27-.03,0,.1,0,.2,0,.3.09,0,.18.03.28.03.11,0,.22-.02.32-.03,0-.1,0-.2,0-.3-.11.01-.22.03-.33.03Z"/>
    <path class="cls-2" d="M137.25,68.35h.3c.13-1.12,1.02-2.01,2.15-2.13,0-.1,0-.2,0-.3-1.29.13-2.31,1.14-2.44,2.43Z"/>
    <path class="cls-2" d="M137.56,69h-.3c.17,1.24,1.17,2.21,2.43,2.34,0-.1,0-.2,0-.3-1.1-.12-1.97-.96-2.14-2.04Z"/>
    <path class="cls-2" d="M140.3,71.03c0,.1,0,.2,0,.3,1.23-.15,2.2-1.11,2.37-2.33h-.3c-.16,1.05-1,1.88-2.06,2.03Z"/>
    <path class="cls-2" d="M140.29,65.93c0,.1,0,.2,0,.3,1.09.15,1.94,1.02,2.07,2.12h.3c-.13-1.27-1.12-2.27-2.38-2.42Z"/>
    <path class="cls-2" d="M139.96,71.07c-.09,0-.17-.02-.26-.03,0,.1,0,.2,0,.3.09,0,.18.03.27.03.11,0,.22-.02.33-.03,0-.1,0-.2,0-.3-.11.02-.22.03-.34.03Z"/>
    <path class="cls-2" d="M139.96,66.2c.12,0,.23.02.34.03,0-.1,0-.2,0-.3-.11-.01-.22-.03-.33-.03-.09,0-.18.02-.27.03,0,.1,0,.2,0,.3.09,0,.17-.03.26-.03Z"/>
    <path class="cls-2" d="M60.4,68.35h.3c-.13-1.39-1.19-2.5-2.56-2.71.01.1.02.2.03.3,1.19.21,2.1,1.19,2.22,2.41Z"/>
    <path class="cls-2" d="M58.18,71.32c0,.1-.02.2-.03.3,1.33-.21,2.37-1.27,2.54-2.62h-.3c-.16,1.17-1.06,2.1-2.21,2.31Z"/>
    <path class="cls-2" d="M54.68,68.35h.3c.14-1.34,1.23-2.38,2.59-2.44-.01-.1-.03-.2-.04-.3-1.51.08-2.71,1.25-2.85,2.74Z"/>
    <path class="cls-2" d="M54.99,69h-.3c.18,1.45,1.37,2.58,2.85,2.65.01-.1.02-.2.03-.3-1.33-.05-2.41-1.06-2.59-2.35Z"/>
    <path class="cls-2" d="M57.69,65.9c.17,0,.33.02.49.05-.01-.1-.02-.2-.03-.3-.15-.02-.3-.05-.45-.05-.05,0-.1.01-.16.02.01.1.03.2.04.3.04,0,.08-.01.12-.01Z"/>
    <path class="cls-2" d="M57.69,71.37s-.07,0-.11-.01c0,.1-.02.2-.03.3.05,0,.1.01.15.01.16,0,.31-.02.46-.05.01-.1.02-.2.03-.3-.16.03-.32.05-.49.05Z"/>
    <path class="cls-2" d="M57.59,66.21c0-.1-.01-.2-.02-.3-1.36.06-2.45,1.11-2.59,2.44h.3c.14-1.18,1.11-2.1,2.31-2.15Z"/>
    <path class="cls-2" d="M55.29,69h-.3c.18,1.3,1.25,2.3,2.59,2.35,0-.1.01-.2.02-.3-1.17-.04-2.13-.92-2.31-2.06Z"/>
    <path class="cls-2" d="M58.17,65.95c.01.1.01.2.02.31,1.01.22,1.78,1.06,1.9,2.1h.3c-.12-1.22-1.04-2.19-2.22-2.41Z"/>
    <path class="cls-2" d="M58.2,71.01c0,.1-.01.21-.02.31,1.15-.21,2.05-1.14,2.21-2.31h-.3c-.15,1-.91,1.8-1.89,2.01Z"/>
    <path class="cls-2" d="M57.69,71.07s-.06,0-.09,0c0,.1-.01.2-.02.3.04,0,.07.01.11.01.17,0,.33-.02.49-.05,0-.1.01-.21.02-.31-.17.04-.34.06-.52.06Z"/>
    <path class="cls-2" d="M57.69,66.2c.17,0,.34.02.51.06,0-.1-.01-.2-.02-.31-.16-.03-.32-.05-.49-.05-.04,0-.08.01-.12.01.01.1.01.2.02.3.03,0,.06,0,.1,0Z"/>
    <path class="cls-2" d="M82.1,68.35h.3c.14-1.32,1.21-2.36,2.55-2.44,0-.1-.02-.2-.02-.3-1.49.09-2.69,1.26-2.83,2.74Z"/>
    <path class="cls-2" d="M82.41,69h-.3c.18,1.44,1.36,2.56,2.83,2.65,0-.1.02-.2.02-.3-1.31-.07-2.37-1.07-2.55-2.35Z"/>
    <path class="cls-2" d="M85.57,71.32c0,.1-.02.2-.02.3,1.35-.19,2.4-1.27,2.57-2.62h-.3c-.16,1.18-1.08,2.12-2.25,2.32Z"/>
    <path class="cls-2" d="M87.82,68.35h.3c-.13-1.4-1.21-2.52-2.58-2.71,0,.1.02.2.02.3,1.21.2,2.14,1.18,2.26,2.41Z"/>
    <path class="cls-2" d="M85.11,71.37c-.05,0-.1-.01-.15-.02,0,.1-.02.2-.02.3.06,0,.11.02.17.02.15,0,.29-.02.43-.04,0-.1.02-.2.02-.3-.15.02-.3.05-.45.05Z"/>
    <path class="cls-2" d="M85.11,65.9c.15,0,.3.02.45.05,0-.1-.02-.2-.02-.3-.14-.02-.28-.04-.42-.04-.06,0-.12.01-.18.02,0,.1.02.2.02.3.05,0,.1-.02.16-.02Z"/>
    <path class="cls-2" d="M85.56,65.94c0,.1.02.2.02.3,1.03.2,1.82,1.05,1.94,2.11h.3c-.13-1.23-1.06-2.21-2.26-2.41Z"/>
    <path class="cls-2" d="M85.59,71.02c0,.1-.02.2-.02.3,1.17-.2,2.09-1.14,2.25-2.32h-.3c-.16,1.01-.93,1.82-1.93,2.02Z"/>
    <path class="cls-2" d="M84.98,66.21c0-.1-.02-.2-.02-.3-1.34.08-2.41,1.12-2.55,2.44h.3c.14-1.16,1.09-2.08,2.27-2.14Z"/>
    <path class="cls-2" d="M82.71,69h-.3c.18,1.28,1.24,2.28,2.55,2.35,0-.1.02-.2.02-.3-1.16-.06-2.1-.93-2.27-2.05Z"/>
    <path class="cls-2" d="M85.11,71.07s-.08-.01-.13-.01c0,.1-.02.2-.02.3.05,0,.1.02.15.02.16,0,.31-.02.45-.05,0-.1.02-.2.02-.3-.15.03-.31.05-.48.05Z"/>
    <path class="cls-2" d="M85.11,66.2c.16,0,.32.02.47.05,0-.1-.02-.2-.02-.3-.15-.02-.29-.05-.45-.05-.05,0-.1.01-.16.02,0,.1.02.2.02.3.05,0,.09-.01.13-.01Z"/>
    <path class="cls-2" d="M112.94,71.33c0,.1,0,.2-.01.3,1.36-.18,2.44-1.26,2.61-2.62h-.3c-.16,1.2-1.1,2.14-2.3,2.32Z"/>
    <path class="cls-2" d="M115.25,68.35h.3c-.13-1.41-1.23-2.54-2.62-2.72,0,.1.01.2.02.3,1.23.18,2.18,1.17,2.31,2.42Z"/>
    <path class="cls-2" d="M109.53,68.35h.3c.14-1.31,1.19-2.34,2.51-2.44,0-.1-.02-.2-.02-.3-1.48.11-2.65,1.27-2.79,2.73Z"/>
    <path class="cls-2" d="M109.84,69h-.3c.18,1.43,1.34,2.54,2.79,2.64,0-.1.01-.2.02-.3-1.29-.09-2.33-1.08-2.5-2.34Z"/>
    <path class="cls-2" d="M112.54,65.9c.14,0,.27.02.4.04,0-.1-.01-.2-.02-.3-.13-.02-.25-.04-.38-.04-.07,0-.14.02-.22.02,0,.1.02.2.02.3.07,0,.13-.02.2-.02Z"/>
    <path class="cls-2" d="M112.54,71.37c-.07,0-.13-.01-.19-.02,0,.1-.01.2-.02.3.07,0,.14.02.21.02.13,0,.26-.02.39-.04,0-.1,0-.2.01-.3-.13.02-.27.04-.41.04Z"/>
    <path class="cls-2" d="M110.14,69h-.3c.17,1.27,1.21,2.25,2.5,2.34,0-.1,0-.2,0-.3-1.13-.09-2.04-.94-2.21-2.05Z"/>
    <path class="cls-2" d="M112.35,66.22c0-.1,0-.2,0-.3-1.32.1-2.38,1.13-2.51,2.44h.3c.13-1.15,1.06-2.05,2.22-2.14Z"/>
    <path class="cls-2" d="M112.95,71.03c0,.1,0,.2,0,.3,1.19-.18,2.13-1.13,2.3-2.32h-.3c-.16,1.03-.96,1.85-1.99,2.02Z"/>
    <path class="cls-2" d="M112.94,65.94c0,.1,0,.2,0,.3,1.06.18,1.87,1.04,2,2.11h.3c-.13-1.24-1.08-2.23-2.31-2.42Z"/>
    <path class="cls-2" d="M112.54,71.07c-.06,0-.12-.01-.19-.02,0,.1,0,.2,0,.3.07,0,.13.02.19.02.14,0,.27-.02.41-.04,0-.1,0-.2,0-.3-.13.02-.27.04-.41.04Z"/>
    <path class="cls-2" d="M112.54,66.2c.14,0,.28.02.41.04,0-.1,0-.2,0-.3-.13-.02-.27-.04-.4-.04-.07,0-.13.02-.2.02,0,.1,0,.2,0,.3.06,0,.12-.02.19-.02Z"/>
    <path class="cls-2" d="M3.77,65.7c-.01.1-.02.2-.03.3,1.08.29,1.89,1.21,2.01,2.35h.3c-.12-1.29-1.04-2.34-2.27-2.65Z"/>
    <path class="cls-2" d="M6.04,69h-.3c-.15,1.1-.95,1.98-2.01,2.26,0,.1.02.2.03.3,1.2-.3,2.12-1.31,2.28-2.57Z"/>
    <path class="cls-2" d="M3.03,71.37c-1.51,0-2.74-1.22-2.74-2.74s1.22-2.74,2.74-2.74c.01,0,.03,0,.04,0,0-.1,0-.2,0-.3-.02,0-.03,0-.05,0-1.67,0-3.03,1.36-3.03,3.03s1.36,3.04,3.03,3.04c.02,0,.03,0,.05,0,0-.1,0-.2,0-.3-.01,0-.03,0-.04,0Z"/>
    <path class="cls-2" d="M3.7,71.28c0,.1.02.2.02.3.01,0,.03,0,.04-.01-.01-.1-.02-.2-.03-.3-.01,0-.02,0-.03.01Z"/>
    <path class="cls-2" d="M3.73,65.68c0,.1-.02.2-.02.3.01,0,.02,0,.03.01.01-.1.02-.2.03-.3-.02,0-.03-.01-.05-.01Z"/>
    <path class="cls-2" d="M3.67,71.28c0,.1,0,.21.01.31.01,0,.02,0,.03-.01,0-.1-.02-.2-.02-.3,0,0-.02,0-.03,0Z"/>
    <path class="cls-2" d="M3.69,65.67c0,.1-.01.2-.02.31.01,0,.02,0,.03,0,0-.1.02-.2.02-.3-.01,0-.02,0-.03-.01Z"/>
    <path class="cls-2" d="M3.68,65.67c0,.1,0,.21,0,.31h0c0-.1.01-.2.02-.31,0,0,0,0-.01,0Z"/>
    <path class="cls-2" d="M3.68,71.59s0,0,0,0c0-.1,0-.21-.01-.31,0,.1,0,.21,0,.31Z"/>
    <path class="cls-2" d="M3.1,65.6s0,0-.01,0c0,.1,0,.2,0,.3,0-.1.01-.2.02-.3Z"/>
    <path class="cls-2" d="M3.07,71.36c0,.1,0,.2,0,.3,0,0,0,0,0,0,0-.1-.01-.2-.02-.3Z"/>
    <path class="cls-2" d="M3.13,65.61s-.02,0-.04,0c0,.1-.02.2-.02.3.01,0,.02,0,.03,0,0-.1.02-.2.02-.3Z"/>
    <path class="cls-2" d="M3.1,71.36s-.02,0-.03,0c0,.1.01.2.02.3.01,0,.02,0,.04,0,0-.1-.02-.2-.02-.3Z"/>
    <path class="cls-2" d="M3.14,71.36s-.02,0-.04,0c0,.1.02.2.02.3.01,0,.03,0,.04,0-.01-.1-.02-.2-.03-.3Z"/>
    <path class="cls-2" d="M3.18,65.61s-.03,0-.05,0c0,.1-.02.2-.02.3.01,0,.02,0,.04,0,0-.1.02-.2.04-.3Z"/>
    <path class="cls-2" d="M3.67,71.28c-.17.04-.35.06-.53.07,0,.1.02.2.03.3.17,0,.35-.02.51-.06,0-.1,0-.21,0-.31Z"/>
    <path class="cls-2" d="M3.68,65.67c-.16-.04-.33-.05-.5-.06-.01.1-.03.2-.04.3.18,0,.36.03.53.07,0-.1,0-.21,0-.31Z"/>
    <path class="cls-2" d="M5.74,69h-.1v-.65h.11c-.12-1.14-.93-2.06-2.01-2.35-.01.1-.01.2-.02.31,1.01.3,1.75,1.22,1.75,2.33s-.75,2.03-1.76,2.33c0,.1.01.2.02.31,1.05-.28,1.86-1.16,2.01-2.26Z"/>
    <path class="cls-2" d="M3.03,71.07c-1.34,0-2.43-1.09-2.43-2.44s1.09-2.44,2.43-2.44c.01,0,.02,0,.03,0,0-.1,0-.2,0-.3-.01,0-.03,0-.04,0-1.51,0-2.74,1.22-2.74,2.74s1.22,2.74,2.74,2.74c.01,0,.03,0,.04,0,0-.1,0-.2,0-.3-.01,0-.02,0-.03,0Z"/>
    <path class="cls-2" d="M3.7,65.99c0,.1-.02.2-.02.31.01,0,.02,0,.03.01,0-.1.01-.2.02-.31-.01,0-.02,0-.03-.01Z"/>
    <path class="cls-2" d="M3.73,71.27c0-.1-.01-.2-.02-.31-.01,0-.02,0-.04.01,0,.1.02.2.02.31.01,0,.02,0,.03-.01Z"/>
    <path class="cls-2" d="M3.67,65.98c0,.1,0,.21,0,.31,0,0,0,0,.01,0,0-.1.02-.2.02-.31-.01,0-.02,0-.03,0Z"/>
    <path class="cls-2" d="M3.7,71.28c0-.1-.02-.2-.02-.31,0,0,0,0-.01,0,0,.1,0,.21,0,.31,0,0,.02,0,.03,0Z"/>
    <path class="cls-2" d="M3.67,65.98c0,.1,0,.21,0,.31,0-.1,0-.21,0-.31h0Z"/>
    <path class="cls-2" d="M3.08,71.06s0,0-.01,0c0,.1,0,.2,0,.3,0,0,.02,0,.03,0,0-.1-.02-.2-.02-.3Z"/>
    <path class="cls-2" d="M3.09,66.2c0-.1.02-.2.02-.3-.01,0-.02,0-.03,0,0,.1,0,.2,0,.3,0,0,.01,0,.02,0Z"/>
    <path class="cls-2" d="M3.14,65.91s-.02,0-.04,0c0,.1-.02.2-.02.3.01,0,.02,0,.04,0,0-.1.01-.2.02-.3Z"/>
    <path class="cls-2" d="M3.12,71.06s-.02,0-.04,0c0,.1.02.2.02.3.01,0,.02,0,.04,0,0-.1-.01-.2-.02-.3Z"/>
    <path class="cls-2" d="M3.66,70.97c-.18.05-.36.08-.55.08,0,.1.01.2.02.3.18,0,.36-.03.53-.07,0-.1,0-.21,0-.31Z"/>
    <path class="cls-2" d="M3.14,65.91c0,.1-.01.2-.02.3.19,0,.37.04.54.08,0-.1,0-.21,0-.31-.17-.04-.35-.06-.53-.07Z"/>
    <rect class="cls-1" x="153.64" y="68.35" width="4" height=".65"/>
    <path class="cls-2" d="M142.97,68.35c0,.09.03.18.03.28,0,.13-.02.25-.04.37h10.68v-.65h-10.67Z"/>
    <path class="cls-2" d="M136.95,68.35h-21.41c0,.09.03.18.03.28,0,.13-.02.25-.03.37h21.43c-.02-.12-.04-.24-.04-.37,0-.1.02-.19.03-.28Z"/>
    <path class="cls-2" d="M54.68,68.35H6.05c0,.09.02.18.02.28,0,.13-.02.25-.03.37h48.65c-.02-.12-.04-.24-.04-.37,0-.1.02-.19.03-.28Z"/>
    <path class="cls-2" d="M82.1,68.35h-21.41c0,.09.03.18.03.28,0,.13-.02.25-.03.37h21.43c-.02-.12-.04-.24-.04-.37,0-.1.02-.19.03-.28Z"/>
    <path class="cls-2" d="M109.53,68.35h-21.41c0,.09.03.18.03.28,0,.13-.02.25-.03.37h21.43c-.02-.12-.04-.24-.04-.37,0-.1.02-.19.03-.28Z"/>
    <path class="cls-2" d="M137.25,68.35h-.3c0,.09-.03.18-.03.28,0,.13.02.25.04.37h.3c-.02-.12-.04-.24-.04-.37,0-.1.02-.19.03-.28Z"/>
    <path class="cls-2" d="M142.97,68.35h-.3c0,.09.03.18.03.28,0,.13-.02.25-.03.37h.3c.02-.12.04-.24.04-.37,0-.1-.02-.19-.03-.28Z"/>
    <path class="cls-2" d="M137.55,68.35h-.3c0,.09-.03.18-.03.28,0,.13.02.25.04.37h.3c-.02-.12-.04-.24-.04-.37,0-.1.02-.19.03-.28Z"/>
    <path class="cls-2" d="M142.4,68.63c0,.13-.02.25-.03.37h.3c.02-.12.03-.24.03-.37,0-.1-.02-.19-.03-.28h-.3c.01.09.03.18.03.28Z"/>
    <path class="cls-2" d="M60.7,68.35h-.3c0,.09.03.18.03.28,0,.13-.02.25-.03.37h.3c.02-.12.03-.24.03-.37,0-.1-.02-.19-.03-.28Z"/>
    <path class="cls-2" d="M54.98,68.35h-.3c0,.09-.03.18-.03.28,0,.13.02.25.04.37h.3c-.02-.12-.04-.24-.04-.37,0-.1.02-.19.03-.28Z"/>
    <path class="cls-2" d="M55.25,68.63c0-.1.02-.19.03-.28h-.3c0,.09-.03.18-.03.28,0,.13.02.25.04.37h.3c-.02-.12-.04-.24-.04-.37Z"/>
    <path class="cls-2" d="M60.12,68.63c0,.13-.01.25-.03.37h.3c.02-.12.03-.24.03-.37,0-.1-.02-.19-.03-.28h-.3c.01.09.02.18.02.28Z"/>
    <path class="cls-2" d="M82.4,68.35h-.3c0,.09-.03.18-.03.28,0,.13.02.25.04.37h.3c-.02-.12-.04-.24-.04-.37,0-.1.02-.19.03-.28Z"/>
    <path class="cls-2" d="M88.12,68.35h-.3c0,.09.03.18.03.28,0,.13-.02.25-.03.37h.3c.02-.12.03-.24.03-.37,0-.1-.02-.19-.03-.28Z"/>
    <path class="cls-2" d="M87.55,68.63c0,.13-.01.25-.03.37h.3c.02-.12.03-.24.03-.37,0-.1-.02-.19-.03-.28h-.3c.01.09.02.18.02.28Z"/>
    <path class="cls-2" d="M82.68,68.63c0-.1.02-.19.03-.28h-.3c0,.09-.03.18-.03.28,0,.13.02.25.04.37h.3c-.02-.12-.04-.24-.04-.37Z"/>
    <path class="cls-2" d="M115.55,68.35h-.3c0,.09.03.18.03.28,0,.13-.02.25-.03.37h.3c.02-.12.03-.24.03-.37,0-.1-.02-.19-.03-.28Z"/>
    <path class="cls-2" d="M109.83,68.35h-.3c0,.09-.03.18-.03.28,0,.13.02.25.04.37h.3c-.02-.12-.04-.24-.04-.37,0-.1.02-.19.03-.28Z"/>
    <path class="cls-2" d="M110.1,68.63c0-.1.02-.19.03-.28h-.3c0,.09-.03.18-.03.28,0,.13.02.25.04.37h.3c-.02-.12-.04-.24-.04-.37Z"/>
    <path class="cls-2" d="M114.97,68.63c0,.13-.01.25-.03.37h.3c.02-.12.03-.24.03-.37,0-.1-.02-.19-.03-.28h-.3c.01.09.03.18.03.28Z"/>
    <path class="cls-2" d="M6.07,68.63c0-.1-.02-.19-.02-.28h-.3c0,.09.02.18.02.28,0,.13-.01.25-.03.37h.3c.02-.12.03-.24.03-.37Z"/>
    <path class="cls-2" d="M5.75,68.35h-.11v.65h.1c.02-.12.03-.24.03-.37,0-.1-.01-.19-.02-.28Z"/>
    <rect class="cls-2" x="187.32" y="68.35" width="12.99" height=".65"/>
    <rect class="cls-2" x="235.09" y="68.35" width="23.58" height=".65"/>
    <polygon class="cls-2" points="232.38 69 232.38 68.35 220.95 68.35 221.64 69 232.38 69"/>
    <polygon class="cls-2" points="203.04 68.35 203.05 69 215.38 69 214.69 68.35 203.04 68.35"/>
    <rect class="cls-2" x="157.64" y="68.35" width="26.78" height=".65"/>
    <rect class="cls-2" x="184.42" y="68.35" width="2.89" height=".65"/>
    <g>
      <path class="cls-2" d="M184.42,71.62c0,2.83-.58,5.31-1.72,7.42-1.15,2.11-2.75,3.77-4.8,4.96-2.05,1.19-4.45,1.79-7.2,1.79-2.59,0-4.86-.63-6.83-1.88-1.97-1.25-3.5-3.01-4.59-5.26-1.09-2.26-1.63-4.86-1.63-7.82v-1.81h-4v2.67c0,3.2.71,6,2.12,8.4,1.42,2.4,3.41,4.27,5.97,5.6,2.56,1.33,5.55,2,8.96,2s6.24-.68,8.74-2.03c2.5-1.35,4.44-3.23,5.82-5.63,1.38-2.4,2.06-5.2,2.06-8.4v-2.61h-2.89v2.61Z"/>
      <path class="cls-2" d="M199.32,85.28c-.66.62-1.46.92-2.4.92h-1.05v.62h4.43v-3.82c0,.9-.33,1.66-.99,2.28Z"/>
      <polygon class="cls-2" points="200.31 83.01 200.49 83.01 200.49 86.82 202.89 86.82 202.89 83.01 203.07 83.01 203.05 69 200.31 69 200.31 83.01"/>
      <path class="cls-2" d="M207.51,86.82v-.62h-1.05c-.9,0-1.69-.31-2.37-.92-.68-.62-1.02-1.37-1.02-2.28h0v3.82h4.44Z"/>
      <rect class="cls-2" x="200.31" y="83.01" width=".18" height="3.82"/>
      <rect class="cls-2" x="202.89" y="83.01" width=".18" height="3.82"/>
      <polygon class="cls-2" points="232.38 79.12 221.64 69 215.38 69 235.09 87.68 232.38 84.42 232.38 79.12"/>
      <path class="cls-2" d="M232.38,69v10.12l2.09,1.97.62,6.59h.55c-.21-1.52-.35-2.88-.43-4.09-.08-1.21-.12-2.47-.12-3.79v-10.8h-2.71Z"/>
      <polygon class="cls-2" points="232.38 79.12 232.38 84.42 235.09 87.68 234.48 81.1 232.38 79.12"/>
    </g>
    <polygon class="cls-2" points="220.95 68.35 214.69 68.35 215.38 69 221.64 69 220.95 68.35"/>
    <g>
      <rect class="cls-2" x="157.52" y="43.73" width=".12" height="3.69"/>
      <path class="cls-2" d="M158.6,45.2c.64-.57,1.41-.86,2.31-.86h.99v-.62h-4.25v3.69c0-.9.32-1.64.95-2.22Z"/>
      <rect class="cls-2" x="153.64" y="43.73" width=".18" height="3.69"/>
      <path class="cls-2" d="M149.39,43.73v.62h.99c.9,0,1.67.29,2.31.86.64.58.95,1.31.95,2.22v-3.69h-4.25Z"/>
      <polygon class="cls-2" points="157.64 47.42 157.52 47.42 157.52 43.73 153.83 43.73 153.83 47.42 153.64 47.42 153.64 68.35 157.64 68.35 157.64 47.42"/>
      <rect class="cls-2" x="184.42" y="43.73" width=".18" height="3.69"/>
      <rect class="cls-2" x="187.19" y="43.73" width=".12" height="3.69"/>
      <polygon class="cls-2" points="187.32 47.42 187.19 47.42 187.19 43.73 184.61 43.73 184.61 47.42 184.42 47.42 184.42 68.35 187.32 68.35 187.32 47.42"/>
      <path class="cls-2" d="M188.27,45.2c.64-.57,1.41-.86,2.31-.86h.99v-.62h-4.25v3.69c0-.9.32-1.64.95-2.22Z"/>
      <path class="cls-2" d="M180.18,43.73v.62h.99c.9,0,1.67.29,2.31.86.64.58.95,1.31.95,2.22v-3.69h-4.25Z"/>
      <path class="cls-2" d="M203.02,57.3l-2.04-1.93-.62-6.4h-.62c.37,3.04.55,5.6.55,7.7v11.7h2.74l-.02-11.06Z"/>
      <polygon class="cls-2" points="203.02 57.3 214.69 68.35 220.95 68.35 200.37 48.96 203.02 52.41 203.02 57.3"/>
      <path class="cls-2" d="M227.89,49.88v.62h1.05c.94,0,1.74.31,2.4.92.66.62,1,1.38,1.05,2.28v-3.82h-4.49Z"/>
      <polygon class="cls-2" points="203.02 57.3 203.02 52.41 200.37 48.96 200.98 55.36 203.02 57.3"/>
      <rect class="cls-2" x="234.91" y="49.88" width=".18" height="3.82"/>
      <path class="cls-2" d="M236.11,51.42c.68-.62,1.47-.92,2.37-.92h1.05v-.62h-4.43v3.82c0-.9.34-1.66,1.02-2.28Z"/>
      <rect class="cls-2" x="232.38" y="49.88" width=".12" height="3.82"/>
      <polygon class="cls-2" points="235.09 53.7 234.91 53.7 234.91 49.88 232.51 49.88 232.51 53.7 232.38 53.7 232.38 68.35 235.09 68.35 235.09 53.7"/>
      <path class="cls-2" d="M249.56,53.76h-.12c-.04-.94-.39-1.72-1.05-2.34-.66-.62-1.48-.92-2.46-.92h-.86v-.62h5.23l-.74,3.88ZM249.56,82.88l.74,3.94h-5.23v-.62h.86c.99,0,1.81-.33,2.46-.98.66-.66,1-1.44,1.05-2.34h.12ZM253.31,49.88v36.94h-3.94v-36.94h3.94ZM253.13,82.88h.18c.04.9.39,1.68,1.05,2.34.66.66,1.48.98,2.46.98h.8l.06.62h-5.29l.74-3.94ZM260.52,49.88c1.93,0,3.66.23,5.2.68,1.54.45,2.85,1.11,3.94,1.97,1.09.86,1.92,1.91,2.49,3.14.57,1.23.86,2.63.86,4.19,0,1.72-.41,3.32-1.23,4.8-.82,1.48-1.96,2.69-3.42,3.63-1.46.94-3.11,1.52-4.96,1.72.7.29,1.51.92,2.43,1.91.92.98,1.71,1.95,2.37,2.89,1.07,1.44,2.02,2.68,2.86,3.72.84,1.05,1.67,2.04,2.49,2.99.86.94,1.65,1.77,2.37,2.46.72.7,1.5,1.24,2.34,1.63.84.39,1.82.58,2.92.58v.62h-1.91c-2.26,0-4.12-.29-5.57-.86-1.46-.57-2.64-1.28-3.54-2.12-.9-.84-1.68-1.65-2.34-2.43-.17-.21-.54-.73-1.14-1.57-.6-.84-1.24-1.75-1.94-2.74-.7-.99-1.33-1.88-1.91-2.68s-.92-1.28-1.05-1.45c-.82-1.07-1.77-2.02-2.83-2.86-1.07-.84-2.2-1.11-3.39-1.11v-.65c1.32.04,2.48-.08,3.51-.12,1.15-.04,2.28-.13,3.45-.28,1.15-.14,2.23-.58,3.23-1.32,1-.74,1.79-1.97,2.37-3.69.16-.45.29-.98.37-1.6s.1-1.25.06-1.91c-.04-1.15-.26-2.18-.65-3.08-.39-.9-.94-1.68-1.66-2.34-.72-.66-1.57-1.17-2.55-1.54s-2.09-.57-3.32-.62c-1.93-.08-3.61-.1-5.05-.06-1.44.04-2.15.04-2.15,0s-.05-.22-.15-.52c-.1-.31-.26-.77-.46-1.39h7.94Z"/>
      <path class="cls-2" d="M289.08,82.33c-.45,1.23-.39,2.19.18,2.86.57.68,1.23,1.02,1.97,1.02h.49v.62h-11.76v-.62h.49c.86,0,1.74-.3,2.65-.89.9-.59,1.68-1.59,2.34-2.99h3.63ZM300.96,49.02l.43,4.25-14.1,33.37h-3.88l14.59-31.27c.45-.98.83-1.84,1.14-2.56.31-.72.58-1.43.83-2.12.25-.7.39-1.25.43-1.66h.55ZM308.23,72.48v1.85h-16.31v-1.85h16.31ZM300.96,49.02l16.93,37.43h-4.86l-13.11-31.95,1.05-5.48ZM311.37,82.33h4.68c.62,1.4,1.38,2.39,2.28,2.99.9.6,1.76.89,2.59.89h.49v.62h-12.62v-.62h.49c.7,0,1.33-.34,1.91-1.02.57-.68.64-1.63.18-2.86Z"/>
      <path class="cls-2" d="M325.59,54.38h-4.68c-.62-1.4-1.38-2.39-2.28-2.99-.9-.59-1.77-.89-2.59-.89h-.49v-.62h12.62v.62h-.49c-.7,0-1.32.34-1.88,1.02-.55.68-.63,1.63-.21,2.86ZM336,87.68l-16.93-37.43h4.86l13.11,31.95-1.05,5.48ZM336,87.68l-.43-4.25,14.1-33.37h3.88l-14.59,31.27c-.45.98-.83,1.84-1.14,2.55-.31.72-.58,1.43-.83,2.12-.25.7-.39,1.25-.43,1.66h-.55ZM347.88,54.38c.45-1.23.39-2.19-.18-2.86-.58-.68-1.23-1.02-1.97-1.02h-.43v-.62h11.7v.62h-.49c-.86,0-1.75.3-2.65.89-.9.6-1.68,1.59-2.34,2.99h-3.63Z"/>
      <path class="cls-2" d="M364.62,53.76h-.12c-.04-.94-.39-1.72-1.05-2.34-.66-.62-1.5-.92-2.52-.92h-.86v-.62h5.36l-.8,3.88ZM364.62,82.88l.8,3.94h-5.36v-.62h.86c1.03,0,1.87-.33,2.52-.98.66-.66,1-1.44,1.05-2.34h.12ZM368.44,49.88v36.94h-3.94v-36.94h3.94ZM384.94,49.88v1.91h-16.62v-1.91h16.62ZM382.11,67.43v1.85h-13.79v-1.85h13.79ZM385,84.91l-.12,1.91h-16.56v-1.91h16.68ZM388.45,78.02l-3.39,8.8h-9.36l2.09-1.91c2.05,0,3.7-.3,4.96-.89,1.25-.59,2.27-1.42,3.05-2.46.78-1.05,1.46-2.23,2.03-3.54h.62ZM384.94,48.9v1.6l-7.02-.62c1.27,0,2.63-.11,4.06-.34,1.44-.23,2.42-.44,2.96-.65ZM382.11,64.04v3.51h-3.2v-.12c.86,0,1.5-.26,1.91-.77.41-.51.62-1.12.62-1.82v-.8h.68ZM382.11,69.15v3.51h-.68v-.8c0-.7-.21-1.3-.62-1.82-.41-.51-1.05-.77-1.91-.77v-.12h3.2ZM384.94,51.61v4.25h-.68v-.92c0-.86-.28-1.6-.83-2.22-.55-.62-1.3-.92-2.25-.92v-.18h3.75Z"/>
    </g>
    <path class="cls-2" d="M397.62,53.82h-.12c-.04-.94-.41-1.73-1.11-2.37-.7-.64-1.56-.95-2.59-.95h-.74v-.62h4.56v3.94ZM397.62,82.88l.8,3.94h-5.36v-.62h.86c1.03,0,1.87-.33,2.52-.98.66-.66,1-1.44,1.05-2.34h.12ZM401.44,49.88v36.94h-3.94v-36.94h3.94ZM401.25,53.82v-3.94h4.56v.62h-.74c-.99,0-1.84.32-2.56.95-.72.64-1.08,1.43-1.08,2.37h-.18ZM418,84.91l-.12,1.91h-16.56v-1.91h16.68ZM421.45,78.02l-3.39,8.8h-9.36l2.09-1.91c2.05,0,3.7-.3,4.96-.89,1.25-.59,2.27-1.42,3.05-2.46.78-1.05,1.46-2.23,2.03-3.54h.62Z"/>
    <path class="cls-2" d="M429.14,53.76h-.12c-.04-.94-.39-1.72-1.05-2.34-.66-.62-1.5-.92-2.52-.92h-.86v-.62h5.36l-.8,3.88ZM429.14,82.88l.8,3.94h-5.36v-.62h.86c1.03,0,1.87-.33,2.52-.98.66-.66,1-1.44,1.05-2.34h.12ZM432.96,49.88v36.94h-3.94v-36.94h3.94ZM449.46,49.88v1.91h-16.62v-1.91h16.62ZM446.63,67.43v1.85h-13.79v-1.85h13.79ZM449.52,84.91l-.12,1.91h-16.56v-1.91h16.68ZM452.97,78.02l-3.39,8.8h-9.36l2.09-1.91c2.05,0,3.7-.3,4.96-.89,1.25-.59,2.27-1.42,3.05-2.46.78-1.05,1.46-2.23,2.03-3.54h.62ZM449.46,48.9v1.6l-7.02-.62c1.27,0,2.63-.11,4.06-.34,1.44-.23,2.42-.44,2.96-.65ZM446.63,64.04v3.51h-3.2v-.12c.86,0,1.5-.26,1.91-.77.41-.51.62-1.12.62-1.82v-.8h.68ZM446.63,69.15v3.51h-.68v-.8c0-.7-.21-1.3-.62-1.82-.41-.51-1.05-.77-1.91-.77v-.12h3.2ZM449.46,51.61v4.25h-.68v-.92c0-.86-.28-1.6-.83-2.22-.55-.62-1.3-.92-2.25-.92v-.18h3.75Z"/>
    <path class="cls-2" d="M462.02,53.89h-.12c-.04-.98-.4-1.79-1.08-2.43-.68-.64-1.51-.95-2.49-.95h-.74v-.62h4.43v4ZM462.02,82.82v4h-4.43v-.62h.8c.99,0,1.81-.34,2.46-1.02.66-.68,1-1.47,1.05-2.37h.12ZM465.9,49.88v36.94h-4v-36.94h4ZM478.15,49.88c4.06,0,7.57.74,10.53,2.22,2.96,1.48,5.23,3.6,6.83,6.37s2.4,6.06,2.4,9.88-.8,7.1-2.4,9.85c-1.6,2.75-3.88,4.87-6.83,6.37-2.96,1.5-6.46,2.25-10.53,2.25h-13.11l-.12-1.85h13.24c4.76,0,8.51-1.49,11.24-4.46,2.73-2.98,4.09-7.03,4.09-12.16s-1.37-9.18-4.09-12.16c-2.73-2.98-6.48-4.46-11.24-4.46h-13.85v-1.85h13.85Z"/>
    <path class="cls-3" d="M498.52,42.56c.41.16,1.04.33,1.88.49.84.16,1.77.31,2.8.43,1.03.12,1.97.18,2.83.18l-7.51.68v-1.79ZM534.17,43.67v1.85h-35.65v-1.85h35.65ZM502.77,45.33v.18c-1.03.04-1.89.41-2.59,1.11s-1.05,1.56-1.05,2.59v1.05l-.62.06v-4.99h4.25ZM514.53,82.33v4.49h-4.93v-.62h.8c1.07,0,1.98-.38,2.74-1.14.76-.76,1.16-1.67,1.2-2.74h.18ZM518.35,43.91v42.91h-4v-42.91h4ZM518.16,82.33h.18c.04,1.07.44,1.98,1.2,2.74.76.76,1.67,1.14,2.74,1.14h.8v.62h-4.93v-4.49ZM534.17,42.56v1.79l-7.51-.68c.9,0,1.86-.06,2.86-.18,1-.12,1.94-.27,2.8-.43.86-.16,1.48-.33,1.85-.49ZM534.17,45.33v4.99l-.62-.06v-1.05c0-1.03-.36-1.89-1.08-2.59-.72-.7-1.57-1.07-2.56-1.11v-.18h4.25Z"/>
    <path class="cls-3" d="M543.22,53.76h-.12c-.04-.94-.39-1.72-1.05-2.34-.66-.62-1.48-.92-2.46-.92h-.86v-.62h5.23l-.74,3.88ZM543.22,82.88l.74,3.94h-5.23v-.62h.86c.99,0,1.81-.33,2.46-.98.66-.66,1-1.44,1.05-2.34h.12ZM546.98,49.88v36.94h-3.94v-36.94h3.94ZM546.79,82.88h.18c.04.9.39,1.68,1.05,2.34.66.66,1.48.98,2.46.98h.8l.06.62h-5.29l.74-3.94ZM554.18,49.88c1.93,0,3.66.23,5.2.68,1.54.45,2.85,1.11,3.94,1.97,1.09.86,1.92,1.91,2.49,3.14.57,1.23.86,2.63.86,4.19,0,1.72-.41,3.32-1.23,4.8-.82,1.48-1.96,2.69-3.42,3.63-1.46.94-3.11,1.52-4.96,1.72.7.29,1.51.92,2.43,1.91.92.98,1.71,1.95,2.37,2.89,1.07,1.44,2.02,2.68,2.86,3.72.84,1.05,1.67,2.04,2.49,2.99.86.94,1.65,1.77,2.37,2.46.72.7,1.5,1.24,2.34,1.63.84.39,1.82.58,2.92.58v.62h-1.91c-2.26,0-4.12-.29-5.57-.86-1.46-.57-2.64-1.28-3.54-2.12-.9-.84-1.68-1.65-2.34-2.43-.17-.21-.54-.73-1.14-1.57-.6-.84-1.24-1.75-1.94-2.74-.7-.99-1.33-1.88-1.91-2.68s-.92-1.28-1.05-1.45c-.82-1.07-1.77-2.02-2.83-2.86-1.07-.84-2.2-1.26-3.39-1.26v-.62c1.31.04,2.48.04,3.51,0,1.15-.04,2.3-.13,3.45-.28,1.15-.14,2.23-.58,3.23-1.32,1-.74,1.79-1.97,2.37-3.69.16-.45.29-.98.37-1.6s.1-1.25.06-1.91c-.04-1.15-.26-2.18-.65-3.08-.39-.9-.94-1.68-1.66-2.34-.72-.66-1.57-1.17-2.55-1.54s-2.09-.57-3.32-.62c-1.93-.08-3.61-.1-5.05-.06-1.44.04-2.15.04-2.15,0s-.05-.22-.15-.52c-.1-.31-.26-.77-.46-1.39h7.94Z"/>
    <path class="cls-3" d="M579.17,49.88v3.26h-.12c-.04-.74-.34-1.36-.89-1.88-.55-.51-1.24-.77-2.06-.77h-.92v-.62h4ZM582.99,49.88v23.27c0,3.98,1.02,7.12,3.05,9.42,2.03,2.3,4.81,3.45,8.34,3.45,3.9,0,6.97-1.09,9.2-3.26,2.24-2.17,3.35-5.15,3.35-8.93v-23.95h2.83v23.95c0,4.27-1.36,7.64-4.09,10.13-2.73,2.48-6.47,3.72-11.24,3.72s-8.46-1.23-11.24-3.69-4.16-5.83-4.16-10.1v-24.01h3.94ZM586.87,49.88v.62h-.92c-.78,0-1.47.26-2.06.77-.6.51-.89,1.14-.89,1.88h-.12v-3.26h4ZM607.06,49.88v3.26h-.12c0-.74-.29-1.36-.86-1.88-.58-.51-1.27-.77-2.09-.77h-.92v-.62h4ZM613.65,49.88v.62h-.92c-.78,0-1.46.26-2.03.77-.58.51-.88,1.14-.92,1.88h-.12v-3.26h4Z"/>
    <path class="cls-3" d="M616.73,48.84c.37.12.93.27,1.69.43.76.16,1.61.3,2.56.4.94.1,1.83.15,2.65.15l-6.89.62v-1.6ZM650.53,49.82v1.85h-33.8v-1.85h33.8ZM620.48,51.55v.12c-.94.04-1.69.36-2.25.95-.55.6-.83,1.32-.83,2.19v.99h-.68v-4.25h3.75ZM631.75,82.88v3.94h-4.49v-.62h.74c.99,0,1.83-.33,2.52-.98.7-.66,1.07-1.44,1.11-2.34h.12ZM635.63,50.07v36.75h-4v-36.75h4ZM635.44,82.88h.19c.04.9.41,1.68,1.11,2.34.7.66,1.54.98,2.52.98h.68v.62h-4.5v-3.94ZM650.53,48.84v1.6l-6.9-.62c.82,0,1.69-.05,2.62-.15.92-.1,1.78-.24,2.56-.4.78-.16,1.35-.31,1.72-.43ZM650.53,51.55v4.25h-.68v-.99c0-.86-.28-1.59-.83-2.19-.55-.59-1.3-.91-2.25-.95v-.12h3.76Z"/>
    <path class="cls-3" d="M659.27,53.82h-.18c-.04-.94-.4-1.73-1.08-2.37-.68-.64-1.51-.95-2.49-.95h-.74v-.62h4.49v3.94ZM659.27,82.88v3.94h-4.49v-.62h.74c.98,0,1.82-.33,2.49-.98.68-.66,1.04-1.44,1.08-2.34h.18ZM663.02,49.88v36.94h-3.94v-36.94h3.94ZM686.36,67.68v1.85h-24.01v-1.85h24.01ZM662.84,53.82v-3.94h4.49v.62h-.74c-.98,0-1.83.32-2.52.95-.7.64-1.05,1.43-1.05,2.37h-.18ZM662.84,82.88h.18c0,.9.35,1.68,1.05,2.34.7.66,1.54.98,2.52.98h.74v.62h-4.49v-3.94ZM685.93,53.82h-.18c-.04-.94-.4-1.73-1.08-2.37-.68-.64-1.51-.95-2.49-.95h-.74v-.62h4.49v3.94ZM685.93,82.88v3.94h-4.49v-.62h.74c.99,0,1.82-.33,2.49-.98.68-.66,1.04-1.44,1.08-2.34h.18ZM689.68,49.88v36.94h-3.94v-36.94h3.94ZM689.5,53.82v-3.94h4.49v.62h-.74c-.99,0-1.82.32-2.49.95-.68.64-1.04,1.43-1.08,2.37h-.18ZM689.5,82.88h.18c.04.9.4,1.68,1.08,2.34.68.66,1.51.98,2.49.98h.74v.62h-4.49v-3.94Z"/>
  </g>
</svg>