<?xml version="1.0" encoding="UTF-8"?>
<svg id="Layer_2" data-name="Layer 2" xmlns="http://www.w3.org/2000/svg" viewBox="0 0 692.71 140.03">
  <defs>
    <style>
      .cls-1, .cls-2 {
        fill: none;
      }

      .cls-3 {
        fill: #fff;
      }

      .cls-2 {
        stroke: #c09772;
        stroke-miterlimit: 10;
      }

      .cls-4 {
        fill: #c09772;
      }
    </style>
  </defs>
  <g id="Layer_1-2" data-name="Layer 1">
    <circle class="cls-2" cx="30.68" cy="70.01" r="27.81"/>
    <circle class="cls-2" cx="58.49" cy="70.01" r="55.61"/>
    <circle class="cls-2" cx="44.59" cy="70.01" r="41.71"/>
    <circle class="cls-2" cx="72.39" cy="70.01" r="69.51"/>
    <circle class="cls-4" cx="58.16" cy="69.97" r="2.78"/>
    <circle class="cls-4" cx="86.04" cy="69.97" r="2.78"/>
    <circle class="cls-4" cx="113.92" cy="69.97" r="2.78"/>
    <circle class="cls-4" cx="86.61" cy="70.06" r="2.78"/>
    <g>
      <polygon class="cls-1" points="201.77 69.51 213.29 69.51 201.75 58.57 201.77 69.51"/>
      <polygon class="cls-1" points="231.11 80.4 231.11 70.51 220.61 70.51 231.11 80.4"/>
      <polygon class="cls-3" points="201.75 58.57 213.29 69.51 219.55 69.51 199.09 50.24 201.74 53.68 201.75 58.57"/>
      <polygon class="cls-3" points="201.75 58.57 201.74 53.68 199.09 50.24 199.71 56.64 201.75 58.57"/>
      <path class="cls-3" d="M201.75,58.57l-2.04-1.93-.62-6.4h-.62c.37,3.04.55,5.6.55,7.7v11.58h2.74l-.02-10.94Z"/>
      <polygon class="cls-3" points="231.11 80.4 220.61 70.51 214.35 70.51 233.81 88.96 231.11 85.7 231.11 80.4"/>
      <path class="cls-3" d="M226.61,51.16v.62h1.05c.94,0,1.74.31,2.4.92.66.62,1,1.38,1.05,2.28v-3.82h-4.49Z"/>
      <polygon class="cls-3" points="231.11 80.4 231.11 85.7 233.81 88.96 233.2 82.37 231.11 80.4"/>
      <rect class="cls-3" x="231.11" y="51.16" width=".12" height="3.82"/>
      <path class="cls-3" d="M234.83,52.7c.68-.62,1.47-.92,2.37-.92h1.05v-.62h-4.43v3.82c0-.9.34-1.66,1.02-2.28Z"/>
      <rect class="cls-3" x="233.63" y="51.16" width=".18" height="3.82"/>
      <polygon class="cls-3" points="233.81 54.98 233.63 54.98 233.63 51.16 231.23 51.16 231.23 54.98 231.11 54.98 231.11 69.51 233.81 69.51 233.81 54.98"/>
      <polygon class="cls-3" points="199.03 84.28 199.22 84.28 199.22 88.1 201.62 88.1 201.62 84.28 201.79 84.28 201.77 70.51 199.03 70.51 199.03 84.28"/>
      <rect class="cls-3" x="201.62" y="84.28" width=".18" height="3.82"/>
      <rect class="cls-3" x="199.03" y="84.28" width=".18" height="3.82"/>
      <path class="cls-3" d="M231.11,80.4l2.09,1.97.62,6.59h.55c-.21-1.52-.35-2.88-.43-4.09-.08-1.21-.12-2.47-.12-3.79v-10.57h-2.71v9.89Z"/>
      <path class="cls-3" d="M206.23,88.1v-.62h-1.05c-.9,0-1.69-.31-2.37-.92-.68-.62-1.02-1.37-1.02-2.28h0v3.82h4.44Z"/>
      <path class="cls-3" d="M198.05,86.56c-.66.62-1.46.92-2.4.92h-1.05v.62h4.43v-3.82c0,.9-.33,1.66-.99,2.28Z"/>
      <path class="cls-1" d="M156.37,72.09c0,2.96.54,5.56,1.63,7.82,1.09,2.26,2.62,4.01,4.59,5.26,1.97,1.25,4.25,1.88,6.83,1.88,2.75,0,5.15-.59,7.2-1.79,2.05-1.19,3.65-2.84,4.8-4.96,1.15-2.11,1.72-4.59,1.72-7.42v-2.38h-26.78v1.58Z"/>
      <path class="cls-3" d="M183.15,72.89c0,2.83-.58,5.31-1.72,7.42-1.15,2.11-2.75,3.77-4.8,4.96-2.05,1.19-4.45,1.79-7.2,1.79-2.59,0-4.86-.63-6.83-1.88-1.97-1.25-3.5-3.01-4.59-5.26-1.09-2.26-1.63-4.86-1.63-7.82v-1.58h-4v2.44c0,3.2.71,6,2.12,8.4,1.42,2.4,3.41,4.27,5.97,5.6,2.56,1.33,5.55,2,8.96,2s6.24-.68,8.74-2.03c2.5-1.35,4.44-3.23,5.82-5.63,1.38-2.4,2.06-5.2,2.06-8.4v-2.38h-2.89v2.38Z"/>
      <path class="cls-3" d="M186.99,46.48c.64-.57,1.41-.86,2.31-.86h.99v-.62h-4.25v3.69c0-.9.32-1.64.95-2.22Z"/>
      <path class="cls-3" d="M178.9,45v.62h.99c.9,0,1.67.29,2.31.86.64.58.95,1.31.95,2.22v-3.69h-4.25Z"/>
      <rect class="cls-3" x="185.92" y="45" width=".12" height="3.69"/>
      <rect class="cls-3" x="183.15" y="45" width=".18" height="3.69"/>
      <polygon class="cls-3" points="186.04 48.7 185.92 48.7 185.92 45 183.33 45 183.33 48.7 183.15 48.7 183.15 69.51 186.04 69.51 186.04 48.7"/>
      <path class="cls-3" d="M148.12,45v.62h.99c.9,0,1.67.29,2.31.86.64.58.95,1.31.95,2.22v-3.69h-4.25Z"/>
      <rect class="cls-3" x="152.36" y="45" width=".18" height="3.69"/>
      <path class="cls-3" d="M157.32,46.48c.64-.57,1.41-.86,2.31-.86h.99v-.62h-4.25v3.69c0-.9.32-1.64.95-2.22Z"/>
      <rect class="cls-3" x="156.24" y="45" width=".12" height="3.69"/>
      <polygon class="cls-3" points="156.37 48.7 156.24 48.7 156.24 45 152.55 45 152.55 48.7 152.36 48.7 152.36 69.51 156.37 69.51 156.37 48.7"/>
      <path class="cls-1" d="M256.5,69.51c.46-.01.91-.03,1.32-.04,1.15-.04,2.3-.1,3.45-.24,1.15-.14,2.23-.58,3.23-1.32,1-.74,1.79-1.97,2.37-3.69.16-.45.29-.98.37-1.6s.1-1.25.06-1.91c-.04-1.15-.26-2.18-.65-3.08-.39-.9-.94-1.68-1.66-2.34-.72-.66-1.57-1.17-2.55-1.54s-2.09-.57-3.32-.62c-1.93-.08-3.61-.1-5.05-.06-1.1.03-1.77.04-2.03.02v16.42h4.47Z"/>
      <rect class="cls-4" x="2.78" y="69.51" width="149.58" height="1"/>
      <rect class="cls-4" x="156.37" y="69.51" width="26.78" height="1"/>
      <rect class="cls-4" x="233.81" y="69.51" width="14.28" height="1"/>
      <rect class="cls-4" x="186.04" y="69.51" width="12.99" height="1"/>
      <polygon class="cls-4" points="201.77 69.51 201.77 70.51 214.35 70.51 213.29 69.51 201.77 69.51"/>
      <polygon class="cls-4" points="231.11 70.51 231.11 69.51 219.55 69.51 220.61 70.51 231.11 70.51"/>
      <rect class="cls-3" x="199.03" y="69.51" width="2.74" height="1"/>
      <rect class="cls-3" x="231.11" y="69.51" width="2.71" height="1"/>
      <polygon class="cls-4" points="219.55 69.51 213.29 69.51 214.35 70.51 220.61 70.51 219.55 69.51"/>
      <rect class="cls-4" x="183.15" y="69.51" width="2.89" height="1"/>
      <rect class="cls-3" x="152.36" y="69.51" width="4" height="1"/>
      <path class="cls-3" d="M254.32,69.52c.79.02,1.5.02,2.19,0h-4.47v1h2.6c-.11,0-.22,0-.33,0v-1Z"/>
      <path class="cls-3" d="M243.79,51.16v.62h.86c.99,0,1.81.31,2.46.92.54.51.86,1.14.98,1.87v-3.41h-4.31Z"/>
      <path class="cls-3" d="M248.1,84.61c.03-.15.05-.3.06-.45h.12l.74,3.94h2.09l.74-3.94h.18v-13.64h-3.94v14.1Z"/>
      <path class="cls-3" d="M256.41,88.1l-.06-.62h-.8c-.98,0-1.81-.33-2.46-.98-.66-.66-1.01-1.44-1.05-2.34v3.94h4.37Z"/>
      <polygon class="cls-3" points="251.11 88.1 252.04 88.1 252.04 84.16 251.85 84.16 251.11 88.1"/>
      <path class="cls-3" d="M248.16,84.16c0,.16-.04.31-.06.45v3.49h.92l-.74-3.94h-.12Z"/>
      <path class="cls-3" d="M247.11,86.5c-.66.66-1.48.98-2.46.98h-.86v.62h4.31v-3.49c-.12.71-.44,1.34-.98,1.88Z"/>
      <path class="cls-3" d="M277,86.9c-.84-.39-1.62-.93-2.34-1.63-.72-.7-1.51-1.52-2.37-2.46-.82-.94-1.65-1.94-2.49-2.99-.84-1.05-1.8-2.29-2.86-3.72-.66-.94-1.45-1.91-2.37-2.89-.92-.99-1.73-1.62-2.43-1.91,1.85-.21,3.5-.78,4.96-1.72,1.46-.94,2.59-2.15,3.42-3.63.82-1.48,1.23-3.08,1.23-4.8,0-1.56-.29-2.96-.86-4.19-.58-1.23-1.41-2.28-2.49-3.14-1.09-.86-2.4-1.52-3.94-1.97-1.54-.45-3.27-.68-5.2-.68h-7.2v1.93c.26.02.93,0,2.03-.02,1.44-.04,3.12-.02,5.05.06,1.23.04,2.34.25,3.32.62s1.84.88,2.55,1.54c.72.66,1.27,1.44,1.66,2.34.39.9.61,1.93.65,3.08.04.66.02,1.29-.06,1.91s-.21,1.15-.37,1.6c-.58,1.72-1.37,2.96-2.37,3.69-1.01.74-2.08,1.18-3.23,1.32-1.15.14-2.3.2-3.45.24-.41.02-.86.03-1.32.04h.32v1h-2.18c1.07.01,2.09.11,3.06.87,1.07.84,2.01,1.8,2.83,2.86.12.16.47.65,1.05,1.45s1.21,1.69,1.91,2.68c.7.98,1.34,1.9,1.94,2.74.59.84.97,1.37,1.14,1.57.66.78,1.44,1.59,2.34,2.43.9.84,2.08,1.55,3.54,2.12,1.46.58,3.31.86,5.57.86h1.91v-.62c-1.11,0-2.08-.19-2.92-.58Z"/>
      <path class="cls-3" d="M251.91,53.07s.04.02.12.02v-1.93h-.74c.21.62.36,1.08.46,1.39.1.31.15.48.15.52Z"/>
      <path class="cls-3" d="M252.04,53.09c-.08,0-.12-.01-.12-.02,0-.04-.05-.22-.15-.52-.1-.31-.26-.77-.46-1.39h-2.28l-.74,3.88h-.12c0-.16-.04-.32-.06-.47v14.95h3.94v-16.42Z"/>
      <path class="cls-3" d="M248.28,55.04l.74-3.88h-.92v3.41c.03.15.05.31.06.47h.12Z"/>
      <rect class="cls-3" x="248.1" y="69.51" width="3.94" height="1"/>
      <path class="cls-3" d="M256.82,69.51h-.32c-.68.02-1.4.03-2.19,0v1c.11,0,.22,0,.33,0h2.18v-1Z"/>
    </g>
    <path class="cls-3" d="M287.81,83.6c-.45,1.23-.39,2.19.18,2.86.57.68,1.23,1.02,1.97,1.02h.49v.62h-11.76v-.62h.49c.86,0,1.74-.3,2.65-.89.9-.59,1.68-1.59,2.34-2.99h3.63ZM299.69,50.3l.43,4.25-14.1,33.37h-3.88l14.59-31.27c.45-.98.83-1.84,1.14-2.56.31-.72.58-1.43.83-2.12.25-.7.39-1.25.43-1.66h.55ZM306.95,73.75v1.85h-16.31v-1.85h16.31ZM299.69,50.3l16.93,37.43h-4.86l-13.11-31.95,1.05-5.48ZM310.09,83.6h4.68c.62,1.4,1.38,2.39,2.28,2.99.9.6,1.76.89,2.59.89h.49v.62h-12.62v-.62h.49c.7,0,1.33-.34,1.91-1.02.57-.68.64-1.63.18-2.86Z"/>
    <path class="cls-3" d="M324.31,55.65h-4.68c-.62-1.4-1.38-2.39-2.28-2.99-.9-.59-1.77-.89-2.59-.89h-.49v-.62h12.62v.62h-.49c-.7,0-1.32.34-1.88,1.02-.55.68-.63,1.63-.21,2.86ZM334.72,88.96l-16.93-37.43h4.86l13.11,31.95-1.05,5.48ZM334.72,88.96l-.43-4.25,14.1-33.37h3.88l-14.59,31.27c-.45.98-.83,1.84-1.14,2.55-.31.72-.58,1.43-.83,2.12-.25.7-.39,1.25-.43,1.66h-.55ZM346.6,55.65c.45-1.23.39-2.19-.18-2.86-.58-.68-1.23-1.02-1.97-1.02h-.43v-.62h11.7v.62h-.49c-.86,0-1.75.3-2.65.89-.9.6-1.68,1.59-2.34,2.99h-3.63Z"/>
    <path class="cls-3" d="M363.34,55.04h-.12c-.04-.94-.39-1.72-1.05-2.34-.66-.62-1.5-.92-2.52-.92h-.86v-.62h5.36l-.8,3.88ZM363.34,84.16l.8,3.94h-5.36v-.62h.86c1.03,0,1.87-.33,2.52-.98.66-.66,1-1.44,1.05-2.34h.12ZM367.16,51.16v36.94h-3.94v-36.94h3.94ZM383.66,51.16v1.91h-16.62v-1.91h16.62ZM380.83,68.7v1.85h-13.79v-1.85h13.79ZM383.72,86.19l-.12,1.91h-16.56v-1.91h16.68ZM387.17,79.29l-3.39,8.8h-9.36l2.09-1.91c2.05,0,3.7-.3,4.96-.89,1.25-.59,2.27-1.42,3.05-2.46.78-1.05,1.46-2.23,2.03-3.54h.62ZM383.66,50.17v1.6l-7.02-.62c1.27,0,2.63-.11,4.06-.34,1.44-.23,2.42-.44,2.96-.65ZM380.83,65.32v3.51h-3.2v-.12c.86,0,1.5-.26,1.91-.77.41-.51.62-1.12.62-1.82v-.8h.68ZM380.83,70.43v3.51h-.68v-.8c0-.7-.21-1.3-.62-1.82-.41-.51-1.05-.77-1.91-.77v-.12h3.2ZM383.66,52.88v4.25h-.68v-.92c0-.86-.28-1.6-.83-2.22-.55-.62-1.3-.92-2.25-.92v-.18h3.75Z"/>
    <path class="cls-3" d="M396.34,55.1h-.12c-.04-.94-.41-1.73-1.11-2.37-.7-.64-1.56-.95-2.59-.95h-.74v-.62h4.56v3.94ZM396.34,84.16l.8,3.94h-5.36v-.62h.86c1.03,0,1.87-.33,2.52-.98.66-.66,1-1.44,1.05-2.34h.12ZM400.16,51.16v36.94h-3.94v-36.94h3.94ZM399.98,55.1v-3.94h4.56v.62h-.74c-.99,0-1.84.32-2.56.95-.72.64-1.08,1.43-1.08,2.37h-.18ZM416.72,86.19l-.12,1.91h-16.56v-1.91h16.68ZM420.17,79.29l-3.39,8.8h-9.36l2.09-1.91c2.05,0,3.7-.3,4.96-.89,1.25-.59,2.27-1.42,3.05-2.46.78-1.05,1.46-2.23,2.03-3.54h.62Z"/>
    <path class="cls-3" d="M427.86,55.04h-.12c-.04-.94-.39-1.72-1.05-2.34-.66-.62-1.5-.92-2.52-.92h-.86v-.62h5.36l-.8,3.88ZM427.86,84.16l.8,3.94h-5.36v-.62h.86c1.03,0,1.87-.33,2.52-.98.66-.66,1-1.44,1.05-2.34h.12ZM431.68,51.16v36.94h-3.94v-36.94h3.94ZM448.18,51.16v1.91h-16.62v-1.91h16.62ZM445.35,68.7v1.85h-13.79v-1.85h13.79ZM448.24,86.19l-.12,1.91h-16.56v-1.91h16.68ZM451.69,79.29l-3.39,8.8h-9.36l2.09-1.91c2.05,0,3.7-.3,4.96-.89,1.25-.59,2.27-1.42,3.05-2.46.78-1.05,1.46-2.23,2.03-3.54h.62ZM448.18,50.17v1.6l-7.02-.62c1.27,0,2.63-.11,4.06-.34,1.44-.23,2.42-.44,2.96-.65ZM445.35,65.32v3.51h-3.2v-.12c.86,0,1.5-.26,1.91-.77.41-.51.62-1.12.62-1.82v-.8h.68ZM445.35,70.43v3.51h-.68v-.8c0-.7-.21-1.3-.62-1.82-.41-.51-1.05-.77-1.91-.77v-.12h3.2ZM448.18,52.88v4.25h-.68v-.92c0-.86-.28-1.6-.83-2.22-.55-.62-1.3-.92-2.25-.92v-.18h3.75Z"/>
    <path class="cls-3" d="M460.74,55.16h-.12c-.04-.98-.4-1.79-1.08-2.43-.68-.64-1.51-.95-2.49-.95h-.74v-.62h4.43v4ZM460.74,84.1v4h-4.43v-.62h.8c.99,0,1.81-.34,2.46-1.02.66-.68,1-1.47,1.05-2.37h.12ZM464.62,51.16v36.94h-4v-36.94h4ZM476.87,51.16c4.06,0,7.57.74,10.53,2.22,2.96,1.48,5.23,3.6,6.83,6.37s2.4,6.06,2.4,9.88-.8,7.1-2.4,9.85c-1.6,2.75-3.88,4.87-6.83,6.37-2.96,1.5-6.46,2.25-10.53,2.25h-13.11l-.12-1.85h13.24c4.76,0,8.51-1.49,11.24-4.46,2.73-2.98,4.09-7.03,4.09-12.16s-1.37-9.18-4.09-12.16c-2.73-2.98-6.48-4.46-11.24-4.46h-13.85v-1.85h13.85Z"/>
    <path class="cls-4" d="M497.25,43.83c.41.16,1.04.33,1.88.49.84.16,1.77.31,2.8.43,1.03.12,1.97.18,2.83.18l-7.51.68v-1.79ZM532.89,44.94v1.85h-35.65v-1.85h35.65ZM501.5,46.6v.18c-1.03.04-1.89.41-2.59,1.11s-1.05,1.56-1.05,2.59v1.05l-.62.06v-4.99h4.25ZM513.25,83.6v4.49h-4.93v-.62h.8c1.07,0,1.98-.38,2.74-1.14.76-.76,1.16-1.67,1.2-2.74h.18ZM517.07,45.19v42.91h-4v-42.91h4ZM516.89,83.6h.18c.04,1.07.44,1.98,1.2,2.74.76.76,1.67,1.14,2.74,1.14h.8v.62h-4.93v-4.49ZM532.89,43.83v1.79l-7.51-.68c.9,0,1.86-.06,2.86-.18,1-.12,1.94-.27,2.8-.43.86-.16,1.48-.33,1.85-.49ZM532.89,46.6v4.99l-.62-.06v-1.05c0-1.03-.36-1.89-1.08-2.59-.72-.7-1.57-1.07-2.56-1.11v-.18h4.25Z"/>
    <path class="cls-4" d="M541.94,55.04h-.12c-.04-.94-.39-1.72-1.05-2.34-.66-.62-1.48-.92-2.46-.92h-.86v-.62h5.23l-.74,3.88ZM541.94,84.16l.74,3.94h-5.23v-.62h.86c.99,0,1.81-.33,2.46-.98.66-.66,1-1.44,1.05-2.34h.12ZM545.7,51.16v36.94h-3.94v-36.94h3.94ZM545.51,84.16h.18c.04.9.39,1.68,1.05,2.34.66.66,1.48.98,2.46.98h.8l.06.62h-5.29l.74-3.94ZM552.9,51.16c1.93,0,3.66.23,5.2.68,1.54.45,2.85,1.11,3.94,1.97,1.09.86,1.92,1.91,2.49,3.14.57,1.23.86,2.63.86,4.19,0,1.72-.41,3.32-1.23,4.8-.82,1.48-1.96,2.69-3.42,3.63-1.46.94-3.11,1.52-4.96,1.72.7.29,1.51.92,2.43,1.91.92.98,1.71,1.95,2.37,2.89,1.07,1.44,2.02,2.68,2.86,3.72.84,1.05,1.67,2.04,2.49,2.99.86.94,1.65,1.77,2.37,2.46.72.7,1.5,1.24,2.34,1.63.84.39,1.82.58,2.92.58v.62h-1.91c-2.26,0-4.12-.29-5.57-.86-1.46-.57-2.64-1.28-3.54-2.12-.9-.84-1.68-1.65-2.34-2.43-.17-.21-.54-.73-1.14-1.57-.6-.84-1.24-1.75-1.94-2.74-.7-.99-1.33-1.88-1.91-2.68s-.92-1.28-1.05-1.45c-.82-1.07-1.77-2.02-2.83-2.86-1.07-.84-2.2-1.26-3.39-1.26v-.62c1.31.04,2.48.04,3.51,0,1.15-.04,2.3-.13,3.45-.28,1.15-.14,2.23-.58,3.23-1.32,1-.74,1.79-1.97,2.37-3.69.16-.45.29-.98.37-1.6s.1-1.25.06-1.91c-.04-1.15-.26-2.18-.65-3.08-.39-.9-.94-1.68-1.66-2.34-.72-.66-1.57-1.17-2.55-1.54s-2.09-.57-3.32-.62c-1.93-.08-3.61-.1-5.05-.06-1.44.04-2.15.04-2.15,0s-.05-.22-.15-.52c-.1-.31-.26-.77-.46-1.39h7.94Z"/>
    <path class="cls-4" d="M577.9,51.16v3.26h-.12c-.04-.74-.34-1.36-.89-1.88-.55-.51-1.24-.77-2.06-.77h-.92v-.62h4ZM581.71,51.16v23.27c0,3.98,1.02,7.12,3.05,9.42,2.03,2.3,4.81,3.45,8.34,3.45,3.9,0,6.97-1.09,9.2-3.26,2.24-2.17,3.35-5.15,3.35-8.93v-23.95h2.83v23.95c0,4.27-1.36,7.64-4.09,10.13-2.73,2.48-6.47,3.72-11.24,3.72s-8.46-1.23-11.24-3.69-4.16-5.83-4.16-10.1v-24.01h3.94ZM585.59,51.16v.62h-.92c-.78,0-1.47.26-2.06.77-.6.51-.89,1.14-.89,1.88h-.12v-3.26h4ZM605.79,51.16v3.26h-.12c0-.74-.29-1.36-.86-1.88-.58-.51-1.27-.77-2.09-.77h-.92v-.62h4ZM612.37,51.16v.62h-.92c-.78,0-1.46.26-2.03.77-.58.51-.88,1.14-.92,1.88h-.12v-3.26h4Z"/>
    <path class="cls-4" d="M615.45,50.11c.37.12.93.27,1.69.43.76.16,1.61.3,2.56.4.94.1,1.83.15,2.65.15l-6.89.62v-1.6ZM649.25,51.1v1.85h-33.8v-1.85h33.8ZM619.21,52.82v.12c-.94.04-1.69.36-2.25.95-.55.6-.83,1.32-.83,2.19v.99h-.68v-4.25h3.75ZM630.47,84.16v3.94h-4.49v-.62h.74c.99,0,1.83-.33,2.52-.98.7-.66,1.07-1.44,1.11-2.34h.12ZM634.35,51.34v36.75h-4v-36.75h4ZM634.17,84.16h.19c.04.9.41,1.68,1.11,2.34.7.66,1.54.98,2.52.98h.68v.62h-4.5v-3.94ZM649.25,50.11v1.6l-6.9-.62c.82,0,1.69-.05,2.62-.15.92-.1,1.78-.24,2.56-.4.78-.16,1.35-.31,1.72-.43ZM649.25,52.82v4.25h-.68v-.99c0-.86-.28-1.59-.83-2.19-.55-.59-1.3-.91-2.25-.95v-.12h3.76Z"/>
    <path class="cls-4" d="M657.99,55.1h-.18c-.04-.94-.4-1.73-1.08-2.37-.68-.64-1.51-.95-2.49-.95h-.74v-.62h4.49v3.94ZM657.99,84.16v3.94h-4.49v-.62h.74c.98,0,1.82-.33,2.49-.98.68-.66,1.04-1.44,1.08-2.34h.18ZM661.75,51.16v36.94h-3.94v-36.94h3.94ZM685.08,68.95v1.85h-24.01v-1.85h24.01ZM661.56,55.1v-3.94h4.49v.62h-.74c-.98,0-1.83.32-2.52.95-.7.64-1.05,1.43-1.05,2.37h-.18ZM661.56,84.16h.18c0,.9.35,1.68,1.05,2.34.7.66,1.54.98,2.52.98h.74v.62h-4.49v-3.94ZM684.65,55.1h-.18c-.04-.94-.4-1.73-1.08-2.37-.68-.64-1.51-.95-2.49-.95h-.74v-.62h4.49v3.94ZM684.65,84.16v3.94h-4.49v-.62h.74c.99,0,1.82-.33,2.49-.98.68-.66,1.04-1.44,1.08-2.34h.18ZM688.4,51.16v36.94h-3.94v-36.94h3.94ZM688.22,55.1v-3.94h4.49v.62h-.74c-.99,0-1.82.32-2.49.95-.68.64-1.04,1.43-1.08,2.37h-.18ZM688.22,84.16h.18c.04.9.4,1.68,1.08,2.34.68.66,1.51.98,2.49.98h.74v.62h-4.49v-3.94Z"/>
    <circle class="cls-3" cx="2.78" cy="69.97" r="2.78"/>
  </g>
</svg>